<?xml version="1.0" encoding="UTF-8"?><svg width="700px" height="400px" id="Layer_1" xmlns="http://www.w3.org/2000/svg" viewBox="0 0 8327.23 3386.52"><defs><style>.cls-1{letter-spacing:0em;}.cls-2{letter-spacing:-.01em;}.cls-3{stroke:#000;stroke-miterlimit:10;stroke-width:22px;}.cls-3,.cls-4{fill:#fff;}.cls-5{letter-spacing:0em;}.cls-6{font-family:Lato-Regular, 'Lato';font-size:12px;}.cls-7{letter-spacing:-.01em;}.cls-8{letter-spacing:-.01em;}.cls-9{letter-spacing:0em;}</style></defs><rect x="2402.27" width="5924.96" height="3386.52"/><path class="cls-4" d="M6814.95,1177.03l202.21,285.24c1.45,1.76,2.34,4.01,2.34,6.43v171.67h25.64v-76.83c0-5.55,4.5-10.04,10.04-10.04h47.42v-90.58c0-5.55,4.5-10.04,10.05-10.04h51.44v-66.22c0-5.55,4.5-10.05,10.05-10.05h67.99c5.55,0,10.05,4.5,10.05,10.05v66.22h51.52c5.55,0,10.05,4.5,10.05,10.04v90.58h47.42c5.55,0,10.04,4.5,10.04,10.04v76.83h35.61c5.55,0,10.05,4.5,10.05,10.05v63.73h5.22c5.55,0,10.05,4.5,10.05,10.04s-4.5,10.04-10.05,10.04h-5.22v714.9c0,5.54-4.5,10.05-10.05,10.05h-802.98c-5.55,0-10.04-4.5-10.04-10.05v-276.39h-420.66v197.07c0,5.54-4.5,10.04-10.05,10.04s-10.05-4.5-10.05-10.04v-197.07h-18.41c-5.54,0-10.05-4.5-10.05-10.05s4.5-10.04,10.05-10.04h18.41v-528.12h0v-73.21c0-5.55,4.5-10.05,10.05-10.05h.16c51.92-2.73,79.56-17.6,94.59-41.47,14.63-23.23,18.49-56.1,21.06-94.92h-7.96c-5.55,0-10.04-4.5-10.04-10.05s4.5-10.04,10.04-10.04h10.21c4.42-21.3,16.48-39.3,33.11-52.4,18.89-14.87,43.72-23.47,70.01-23.55h.73c26.12,.08,50.31,8.6,68.63,23.39,16.31,13.1,27.97,31.18,32.31,52.56h7.71c5.55,0,10.05,4.5,10.05,10.04s-4.5,10.05-10.05,10.05h-5.62c2.65,38.82,6.43,71.69,21.13,94.92,14.07,22.26,39.06,36.73,84.63,40.75v-72.09h0l.08-.08v-.24h0v-.24h0v-.24h0v-.24h0l.08-.08v-.16h0v-.24h0l.08-.24h0v-.24h.08v-.32l.08-.08v-.08h0v-.08l.08-.16h0v-.08l.09-.16h0v-.08l.08-.08v-.08h0l.08-.16v-.08h0l.08-.08v-.08l.08-.16v-.16h.08v-.08l.08-.08h0l.08-.24h0l.08-.08v-.08l.08-.08h0v-.08l.08-.08v-.08l.08-.08v-.08h.08v-.08l.08-.08v-.08h.08v-.08l.08-.08h0l.08-.16v-.08h.08v-.08l.08-.08,.08-.08,.08-.08h0v-.08l.08-.08,.08-.08h0l202.37-285.4c3.22-4.5,9.48-5.63,13.98-2.41,1.05,.72,1.85,1.61,2.49,2.57h0Zm783.86,1035.9c-.56,.64-1.12,1.28-1.77,1.77v83.9c7.63,.32,15.59-.32,23.62-2.17h0c19.13-4.26,35.04-14.07,45.33-26.44,9.72-11.73,14.23-25.72,11.17-39.14-.08-.48-.24-1.12-.48-2.01-.24-.64-.4-1.36-.64-2.01-1.29-3.86-.08-8.04,2.73-10.61,12.54-13.58,21.78-29.82,26.76-47.42,4.91-17.04,5.71-35.28,1.61-53.45-1.37-6.35-3.37-12.54-5.87-18.41-2.49-6.03-5.55-11.73-9.08-17.11-2.73-4.26-1.85-9.81,1.93-13.03,6.19-5.38,10.85-11.81,13.42-18.72,2.41-6.43,3.06-13.34,1.6-20.18-2.41-10.77-9.96-19.52-20.17-24.83-10.69-5.62-24.35-7.55-38.34-4.5-1.21,.33-2.73,.73-4.42,1.21-1.37,.4-2.81,.88-4.26,1.45-5.14,2.01-10.93-.65-12.94-5.79-.32-.8-.48-1.6-.56-2.41l-.24-1.21c-3.3-14.63-12.54-26.44-24.91-33.84-12.54-7.48-28.21-10.37-44.12-6.75-15.83,3.45-28.86,12.78-36.97,24.83-8.12,11.98-11.49,26.61-8.2,41.23,.72,3.21,1.77,6.35,3.06,9.32,1.29,3.06,2.89,5.95,4.74,8.6,3.14,4.58,2.01,10.85-2.57,13.98l-.4,.24c-19.61,13.42-34.72,31.99-43.4,53.04-8.52,20.42-11.01,43.16-5.95,65.91,3.86,17.44,11.81,33.03,22.75,46.13,11.41,13.58,25.96,24.36,42.51,31.67,3.7,1.61,5.95,5.22,5.95,9.08,.08,.88,.16,1.85,.32,2.73,.16,1.12,.32,2.17,.56,3.14h0c2.97,13.42,12.94,24.11,26.68,30.62,2.81,1.29,5.7,2.41,8.68,3.38v-224.39c0-5.55,4.5-10.05,10.04-10.05s10.05,4.5,10.05,10.05v110.83l48.86-65.98c3.29-4.5,9.57-5.39,14.06-2.09,4.42,3.29,5.38,9.56,2.09,13.98l-63.25,85.44Zm-93.23-248.11c10.85-16.15,28.21-28.45,49.27-33.19,21.06-4.66,41.95-.8,58.75,9.16,14.54,8.68,26.04,22.03,31.82,38.5l.89-.24c18.72-4.18,37.21-1.45,52,6.27,15.27,8.04,26.6,21.38,30.38,38.26,2.33,10.77,1.37,21.54-2.41,31.5-2.81,7.64-7.24,14.71-12.94,20.98,2.33,4.18,4.5,8.6,6.43,13.11,2.89,6.99,5.22,14.3,6.99,21.86,4.82,21.62,3.86,43.23-1.85,63.33-5.46,18.97-15.11,36.65-28.21,51.84l.08,.32c4.42,19.85-1.77,39.87-15.27,56.26-12.78,15.43-32.31,27.65-55.62,33.03-.56,.16-1.21,.32-1.85,.4-9.16,1.93-18.24,2.73-27,2.42v130.52c0,5.54-4.5,10.05-10.05,10.05s-10.04-4.5-10.04-10.05v-133.25c-6.03-1.45-11.81-3.45-17.2-6.03-18.88-8.92-32.79-24.03-37.53-43.4-.16-.64-.32-1.29-.4-1.93-.16-.8-.32-1.6-.48-2.41-17.12-8.44-32.31-20.25-44.45-34.72-12.94-15.43-22.34-33.92-27.01-54.65-5.95-26.93-2.97-53.85,6.99-77.96,9.08-21.86,24.11-41.47,43.48-56.58-.56-1.13-1.12-2.34-1.68-3.54-1.77-4.1-3.22-8.44-4.18-13.02-4.58-20.26,0-40.51,11.09-56.82h0Zm-259.67,258.15h103.76c5.55,0,10.04,4.5,10.04,10.04v206.07h37.05v-704.85h-377.26v704.85h216.36v-206.07c0-5.54,4.5-10.04,10.05-10.04h0Zm93.71,20.09h-83.67v195.54h83.67v-195.54Zm-94.6-236.37h103.76c5.55,0,10.05,4.5,10.05,10.04v148.77c0,5.55-4.5,10.05-10.05,10.05h-103.76c-5.55,0-10.04-4.5-10.04-10.05v-148.77c0-5.55,4.5-10.04,10.04-10.04h0Zm93.72,20.09h-83.67v128.68h83.67v-128.68Zm-268.68-20.09h103.76c5.54,0,10.04,4.5,10.04,10.04v148.77c0,5.55-4.5,10.05-10.04,10.05h-103.76c-5.55,0-10.05-4.5-10.05-10.05v-148.77c0-5.55,4.5-10.04,10.05-10.04h0Zm93.71,20.09h-83.67v128.68h83.67v-128.68Zm81.26-261.52h103.76c5.55,0,10.05,4.5,10.05,10.04v148.77c0,5.55-4.5,10.05-10.05,10.05h-103.76c-5.55,0-10.04-4.5-10.04-10.05v-148.77c0-5.55,4.5-10.04,10.04-10.04h0Zm93.72,20.09h-83.67v128.67h83.67v-128.67Zm-268.68-20.09h103.76c5.54,0,10.04,4.5,10.04,10.04v148.77c0,5.55-4.5,10.05-10.04,10.05h-103.76c-5.55,0-10.05-4.5-10.05-10.05v-148.77c0-5.55,4.5-10.04,10.05-10.04h0Zm93.71,20.09h-83.67v128.67h83.67v-128.67Zm-164.36-56.34c-.73-1.45-1.21-3.05-1.21-4.82s.48-3.3,1.21-4.74v-240.71h-385.54v145.79h0v528.12h12.46c5.55,0,10.05,4.5,10.05,10.04s-4.5,10.05-10.05,10.05h-12.46v266.34h385.54v-710.08Zm20.09-14.87h141.77v-131.73c0-5.55,4.5-10.05,10.04-10.05h76.76c5.54,0,10.04,4.5,10.04,10.05v131.73h138.64v-53.69h-35.61c-5.63,0-10.04-4.5-10.04-10.04v-76.84h-47.42c-5.55,0-10.04-4.5-10.04-10.04v-90.58h-51.52c-5.55,0-10.04-4.5-10.04-10.04v-66.22h-47.9v66.22c0,5.55-4.5,10.04-10.04,10.04h-51.44v90.58c0,5.55-4.5,10.04-10.05,10.04h-47.42v76.84c0,5.54-4.5,10.04-10.05,10.04h-35.68v53.69Zm218.53-121.68h-56.66v121.68h56.66v-121.68Zm-298.5,445.42h-56.66v121.76h56.66v-121.76Zm-66.71-20.09h76.75c5.55,0,10.04,4.5,10.04,10.04v141.85c0,5.55-4.5,10.05-10.04,10.05h-76.75c-5.55,0-10.04-4.5-10.04-10.05v-141.85c0-5.55,4.5-10.04,10.04-10.04h0Zm-142.5,20.09h-56.66v121.76h56.66v-121.76Zm-66.71-20.09h76.75c5.55,0,10.05,4.5,10.05,10.04v141.85c0,5.55-4.5,10.05-10.05,10.05h-76.75c-5.54,0-10.04-4.5-10.04-10.05v-141.85c0-5.55,4.5-10.04,10.04-10.04h0Zm110.83,6.67c0-5.55,4.5-10.04,10.05-10.04s10.04,4.5,10.04,10.04v141.85c0,5.55-4.5,10.05-10.04,10.05s-10.05-4.5-10.05-10.05v-141.85Zm42.2,0c0-5.55,4.5-10.04,10.04-10.04s10.05,4.5,10.05,10.04v141.85c0,5.55-4.5,10.05-10.05,10.05s-10.04-4.5-10.04-10.05v-141.85Zm122.89-235.09h-56.66v121.76h56.66v-121.76Zm-66.71-20.09h76.75c5.55,0,10.04,4.5,10.04,10.04v141.86c0,5.55-4.5,10.04-10.04,10.04h-76.75c-5.55,0-10.04-4.5-10.04-10.04v-141.86c0-5.54,4.5-10.04,10.04-10.04h0Zm-142.5,20.09h-56.66v121.76h56.66v-121.76Zm-66.71-20.09h76.75c5.55,0,10.05,4.5,10.05,10.04v141.86c0,5.55-4.5,10.04-10.05,10.04h-76.75c-5.54,0-10.04-4.5-10.04-10.04v-141.86c0-5.54,4.5-10.04,10.04-10.04h0Zm110.83,6.67c0-5.54,4.5-10.05,10.05-10.05s10.04,4.5,10.04,10.05v141.86c0,5.54-4.5,10.04-10.04,10.04s-10.05-4.5-10.05-10.04v-141.86Zm42.2,0c0-5.54,4.5-10.05,10.04-10.05s10.05,4.5,10.05,10.05v141.86c0,5.54-4.5,10.04-10.05,10.04s-10.04-4.5-10.04-10.04v-141.86Zm122.89-237.42h-56.66v121.76h56.66v-121.76Zm-66.71-20.09h76.75c5.55,0,10.04,4.5,10.04,10.04v141.85c0,5.55-4.5,10.05-10.04,10.05h-76.75c-5.55,0-10.04-4.5-10.04-10.05v-141.85c0-5.55,4.5-10.04,10.04-10.04h0Zm-142.5,20.09h-56.66v121.76h56.66v-121.76Zm-66.71-20.09h76.75c5.55,0,10.05,4.5,10.05,10.04v141.85c0,5.55-4.5,10.05-10.05,10.05h-76.75c-5.54,0-10.04-4.5-10.04-10.05v-141.85c0-5.55,4.5-10.04,10.04-10.04h0Zm110.83,6.67c0-5.54,4.5-10.05,10.05-10.05s10.04,4.5,10.04,10.05v141.86c0,5.55-4.5,10.04-10.04,10.04s-10.05-4.5-10.05-10.04v-141.86Zm42.2,0c0-5.54,4.5-10.05,10.04-10.05s10.05,4.5,10.05,10.05v141.86c0,5.55-4.5,10.04-10.05,10.04s-10.04-4.5-10.04-10.04v-141.86Zm46.13-66.47v-68.47h.08c0-29.01-15.11-48.06-34.23-56.42-7.32-3.22-15.27-4.83-23.15-4.91-7.95,0-15.75,1.53-22.98,4.74-18.08,8.04-32.15,26.92-32.07,57.71h0v67.35h112.36Zm-132.45,0v-67.35h.08c-.08-39.94,19.21-65.02,44.04-76.03,9.81-4.34,20.42-6.43,31.11-6.43,10.61,.08,21.29,2.33,31.1,6.59,25.8,11.25,46.21,36.57,46.21,74.75h0v68.47h107.22l-90.18-127.14-93.23-131.57-183.41,258.71h107.05Zm-499.66,764.33h103.76c5.55,0,10.05,4.5,10.05,10.04v215.64c0,5.55-4.5,10.05-10.05,10.05h-103.76c-5.55,0-10.04-4.5-10.04-10.05v-215.64c0-5.54,4.5-10.04,10.04-10.04h0Zm93.71,20.09h-83.67v195.54h83.67v-195.54Zm-151.26-90.42h420.66v-518.07h-420.66v518.07Zm249.79-216.76h103.76c5.55,0,10.04,4.5,10.04,10.04v148.77c0,5.54-4.5,10.04-10.04,10.04h-103.76c-5.55,0-10.05-4.5-10.05-10.04v-148.77c0-5.55,4.5-10.04,10.05-10.04h0Zm93.71,20.09h-83.67v128.68h83.67v-128.68Zm-285.96-20.09h103.76c5.55,0,10.05,4.5,10.05,10.04v148.77c0,5.54-4.5,10.04-10.05,10.04h-103.76c-5.55,0-10.04-4.5-10.04-10.04v-148.77c0-5.55,4.5-10.04,10.04-10.04h0Zm93.71,20.09h-83.67v128.68h83.67v-128.68Zm97.89-245.29h103.76c5.54,0,10.05,4.5,10.05,10.04v148.77c0,5.54-4.5,10.05-10.05,10.05h-103.76c-5.55,0-10.04-4.5-10.04-10.05v-148.77c0-5.55,4.5-10.04,10.04-10.04h0Zm93.71,20.09h-83.66v128.67h83.66v-128.67Zm77.8-116.3v-53.77c-53.85-4.5-83.99-22.34-101.59-50.23-17.28-27.41-21.46-63.41-24.28-105.61h-168.94c-2.81,42.19-6.91,78.2-24.19,105.61-17.6,27.89-47.74,45.73-101.67,50.23v53.77h420.66Zm-128.52-229.7c-3.94-14.95-12.54-27.57-24.27-36.97-13.67-11.09-31.59-17.84-51.2-18.81h-.48c-1.45-.08-2.89-.08-4.34-.08-1.61,0-3.3,0-4.99,.08h-.56c-19.85,.97-38.5,7.88-52.72,19.13-11.98,9.4-20.9,21.94-25,36.65h163.56Zm-235.25,325.91h103.76c5.55,0,10.04,4.5,10.04,10.04v148.77c0,5.54-4.5,10.05-10.04,10.05h-103.76c-5.55,0-10.05-4.5-10.05-10.05v-148.77c0-5.55,4.5-10.04,10.05-10.04h0Zm93.72,20.09h-83.67v128.67h83.67v-128.67Zm26.28-282.75h62.13c5.55,0,10.04,4.5,10.04,10.05v89.13c0,5.55-4.5,10.05-10.04,10.05h-62.13c-5.54,0-10.04-4.5-10.04-10.05v-89.13c0-5.55,4.5-10.05,10.04-10.05h0Zm52.08,20.09h-42.04v69.04h42.04v-69.04Z"/><path class="cls-4" d="M4683.41,2847.22l62.54-147.8h23.65l66.35,147.8h-24.54l-18.78-44.77h-68.66l-17.71,44.77h-22.86Zm46.86-60.68h55.55l-16.93-40.99c-5.14-12.46-9.04-22.75-11.69-30.87-2.3,9.65-5.22,19.05-9.04,28.45l-17.89,43.4Zm143.78,60.68v-147.8h32.33l38.54,104.64c3.54,9.73,6.11,17.04,7.79,21.86,1.86-5.39,4.79-13.26,8.69-23.71l39.24-102.79h28.88v147.8h-20.73v-123.69l-47.57,123.69h-19.4l-47.04-125.94v125.94h-20.73Zm204.37-47.5l20.29-1.6c.97,7.39,3.19,13.5,6.73,18.24,3.55,4.82,8.95,8.68,16.39,11.57,7.35,2.97,15.77,4.42,24.98,4.42,8.23,0,15.5-1.12,21.79-3.29,6.29-2.25,10.99-5.3,14-9.24,3.1-3.86,4.69-8.12,4.69-12.62s-1.51-8.68-4.51-12.14c-2.92-3.45-7.8-6.35-14.62-8.68-4.34-1.53-14.09-3.94-29.06-7.24-14.97-3.3-25.43-6.35-31.45-9.24-7.8-3.7-13.55-8.28-17.36-13.74-3.81-5.47-5.67-11.65-5.67-18.41,0-7.56,2.3-14.55,7-20.98,4.69-6.51,11.43-11.41,20.46-14.79,8.94-3.37,18.95-5.06,29.85-5.06,12.05,0,22.77,1.77,31.98,5.3,9.21,3.45,16.3,8.68,21.27,15.59,4.96,6.83,7.62,14.63,7.97,23.31l-20.64,1.45c-1.16-9.4-4.87-16.39-11.34-21.14-6.38-4.82-15.86-7.15-28.35-7.15-13.12,0-22.59,2.17-28.53,6.43-6.02,4.34-8.95,9.64-8.95,15.75,0,5.3,2.13,9.64,6.29,13.1,4.16,3.37,14.97,6.91,32.51,10.52,17.54,3.62,29.59,6.75,36.05,9.4,9.48,3.94,16.48,9,21,15.03,4.52,6.11,6.73,13.1,6.73,20.98s-2.39,15.27-7.44,22.18c-4.96,6.99-12.05,12.37-21.35,16.23-9.3,3.86-19.66,5.79-31.36,5.79-14.71,0-27.02-1.93-36.94-5.87-10.01-3.85-17.8-9.72-23.38-17.6-5.76-7.8-8.69-16.64-9.04-26.52h0Zm221.73,47.5v-130.52h-53.68v-17.28h129.07v17.28h-53.77v130.52h-21.61Zm119.5,0v-147.8h117.64v17.28h-96.03v45.49h89.92v17.28h-89.92v50.39h99.93v17.36h-121.54Zm173.19,0v-147.8h72.2c14.53,0,25.59,1.29,33.13,3.94,7.53,2.65,13.56,7.32,18.07,14.06,4.52,6.67,6.82,14.15,6.82,22.26,0,10.53-3.81,19.37-11.25,26.52-7.44,7.24-19.05,11.73-34.64,13.75,5.76,2.41,10.01,4.9,13.02,7.31,6.29,5.22,12.23,11.81,17.8,19.69l28.17,40.26h-26.93l-21.53-30.78c-6.29-8.92-11.43-15.67-15.5-20.41-4.08-4.66-7.71-7.96-10.99-9.8-3.19-1.93-6.47-3.22-9.83-3.94-2.39-.48-6.38-.73-11.96-.73h-24.98v65.66h-21.61Zm21.61-82.62h46.33c9.83,0,17.45-.88,23.03-2.73,5.5-1.85,9.75-4.83,12.58-8.92,2.92-4.02,4.34-8.44,4.34-13.26,0-6.99-2.75-12.7-8.33-17.28-5.58-4.5-14.44-6.68-26.4-6.68h-51.56v48.87Zm163.71,82.62v-147.8h56.16c12.67,0,22.32,.65,28.97,2.09,9.39,1.93,17.36,5.46,23.92,10.6,8.59,6.59,15.06,14.95,19.31,25.24,4.25,10.21,6.38,22.02,6.38,35.2,0,11.17-1.42,21.14-4.34,29.82-2.84,8.68-6.55,15.84-11.07,21.54-4.61,5.62-9.48,10.12-14.88,13.34-5.4,3.29-11.87,5.78-19.4,7.47-7.61,1.69-16.38,2.49-26.22,2.49h-58.82Zm21.61-17.36h34.73c10.8,0,19.22-.88,25.33-2.73,6.02-1.77,10.9-4.34,14.53-7.64,5.14-4.66,9.13-10.93,11.96-18.72,2.83-7.88,4.25-17.36,4.25-28.54,0-15.51-2.75-27.41-8.33-35.76-5.58-8.28-12.4-13.9-20.37-16.72-5.76-2.01-15.06-3.06-27.91-3.06h-34.19v113.16Zm146.25,17.36l62.54-147.8h23.74l66.35,147.8h-24.54l-18.87-44.77h-68.65l-17.63,44.77h-22.94Zm46.95-60.68h55.54l-17.01-40.99c-5.14-12.46-9.04-22.75-11.69-30.87-2.22,9.65-5.23,19.05-9.04,28.45l-17.8,43.4Zm143.69,60.68v-147.8h32.33l38.53,104.64c3.64,9.73,6.2,17.04,7.8,21.86,1.86-5.39,4.78-13.26,8.77-23.71l39.16-102.79h28.88v147.8h-20.73v-123.69l-47.57,123.69h-19.4l-47.04-125.94v125.94h-20.73Z"/><path class="cls-4" d="M4524.54,2817.96c5.55,0,10.04,4.5,10.04,10.05s-4.5,10.04-10.04,10.04h-946.12c-5.55,0-10.05-4.5-10.05-10.04s4.5-10.05,10.05-10.05h946.12Z"/><path class="cls-4" d="M7549.38,2819.01c5.55,0,10.04,4.5,10.04,10.04s-4.5,10.04-10.04,10.04h-889.3c-5.55,0-10.05-4.5-10.05-10.04s4.5-10.04,10.05-10.04h889.3Z"/><path class="cls-4" d="M3042.1,2455.65c-5.54,0-10.05-4.5-10.05-10.05s4.5-10.04,10.05-10.04h1084.44c5.55,0,10.05,4.5,10.05,10.04s-4.5,10.05-10.05,10.05h-1084.44Z"/><path class="cls-4" d="M5505.79,2459.19c-5.55,0-10.04-4.5-10.04-10.05s4.5-10.05,10.04-10.05h2353.9c5.55,0,10.05,4.5,10.05,10.05s-4.5,10.05-10.05,10.05h-2353.9Z"/><path class="cls-4" d="M4816.45,2459.67c-5.63,0-10.05-4.5-10.05-10.04s4.42-10.05,10.05-10.05h132.93c5.55,0,10.04,4.5,10.04,10.05s-4.5,10.04-10.04,10.04h-132.93Zm289.82,0c-1.61,0-3.06-.4-4.42-1.04-.96,.32-1.93,.48-2.97,.48-5.55,0-10.05-4.5-10.05-10.04v-129.64c-79-35.68-157.85-54.17-236.69-54.57-78.76-.4-157.61,17.36-236.53,54.41v123.94c0,5.54-4.5,10.04-10.04,10.04s-10.04-4.5-10.04-10.04v-130.2c0-4.34,2.73-8.04,6.59-9.49,83.26-39.94,166.69-59.07,250.11-58.67,83.75,.4,167.33,20.49,250.84,58.99,3.7,1.69,5.87,5.3,5.87,9.16h0v126.58h19.37l35.2-237.66c-15.51-2.65-31.02-5.14-46.45-7.39-1.13,.48-2.41,.72-3.78,.72-2.33,0-4.5-.8-6.19-2.17-90.5-12.78-180.51-19.05-270.21-18.97-98.46,.08-196.66,7.88-294.64,23.07-.24,.08-.48,.08-.72,.16-10.21,1.6-20.42,3.21-30.62,4.98v240.87c0,5.54-4.5,10.04-10.05,10.04s-10.05-4.5-10.05-10.04v-249.31c0-5.15,3.86-9.33,8.76-9.97,10.2-1.77,20.49-3.53,30.7-5.14v-59.24c-9.24,1.53-18.49,3.06-27.73,4.66-5.47,.89-10.61-2.81-11.57-8.28-.88-5.38,2.73-10.61,8.2-11.57,10.37-1.77,20.74-3.45,31.1-5.06v-33.2c-9.24,1.53-18.49,3.06-27.73,4.66-5.47,.88-10.61-2.81-11.57-8.28-.88-5.39,2.73-10.61,8.2-11.57,107.86-18.65,218.21-28.21,331.37-28.37,113-.16,228.57,9.17,346.8,28.37,3.54,.64,6.27,2.97,7.55,6.03l49.99-337.72-174.65,100.87h-.08l-22.02,12.7c-4.74,2.81-10.93,1.21-13.66-3.62-2.81-4.82-1.13-10.93,3.62-13.66l13.42-7.8-75.79-131.25c-2.73-4.82-1.12-10.93,3.7-13.74,.24-.08,.48-.24,.72-.32l203.42-96.61h-2.57c-5.54,0-10.04-4.5-10.04-10.04,0-3.29,1.61-6.27,4.1-8.12l271.17-227.28-104-180.19-84.15-145.63c-2.73-4.83-1.12-10.93,3.7-13.66l.56-.32,139.44-80.53c4.74-2.73,10.85-1.12,13.67,3.7,.08,.24,.24,.48,.32,.73h0l181.8,382.89c2.33,4.9,.24,10.85-4.58,13.26l-77.48,44.69,137.44,115.25,297.86-171.92h0v-.08l145.63-84.07c4.75-2.73,10.93-1.12,13.67,3.7,.16,.16,.24,.32,.32,.56l80.53,139.44c2.73,4.74,1.04,10.85-3.7,13.58-.24,.16-.48,.32-.73,.41h0l-382.88,181.8c-4.91,2.33-10.86,.24-13.26-4.58l-58.43-101.27-62.69,36.17,88.09,73.78c4.26,3.54,4.82,9.89,1.29,14.14-2.01,2.33-4.82,3.62-7.71,3.62h-139.85l41.31,71.53c1.45-1.28,3.22-2.17,5.22-2.41,5.47-.8,10.61,2.97,11.42,8.44l4.5,30.62,71.77,124.25c.08,.16,.16,.32,.32,.48,.08,.24,.16,.4,.24,.56l43.48,75.23c.08,.16,.16,.32,.32,.56,.08,.16,.16,.32,.24,.56l41.71,72.09c.08,.16,.16,.32,.24,.48,.16,.24,.24,.4,.32,.56l54.33,94.03c2.73,4.82,1.04,10.93-3.7,13.67-4.82,2.73-10.93,1.12-13.67-3.7l-7.8-13.42-123.21,71.21,49.92,337.64c.8,5.47-2.97,10.53-8.44,11.34-5.47,.8-10.61-2.98-11.41-8.44l-49.83-337.15c-.81-.65-1.45-1.45-1.93-2.42-.16-.24-.32-.48-.4-.72l-181.8-382.89c-2.33-4.9-.24-10.85,4.66-13.26l101.27-58.43-52.24-90.42h-2.01c-9.65,3.3-19.93,3.54-29.41,1.05-1.13-.32-2.25-.65-3.38-1.05h-42.43l-74.58,43.08-169.02,97.57-71.69,484.72c.4,1.44,.48,2.89,.24,4.42-.24,1.37-.72,2.65-1.45,3.7l-35.53,240.31h414.72c5.55,0,10.04,4.5,10.04,10.05s-4.5,10.04-10.04,10.04h-457.07Zm474.51-73.94c-5.54,0-10.04-4.5-10.04-10.04s4.5-10.04,10.04-10.04h55.3c5.55,0,10.05,4.5,10.05,10.04s-4.5,10.04-10.05,10.04h-55.3Zm36.89-146.03c-5.55,0-10.04-4.5-10.04-10.04s4.5-10.04,10.04-10.04h55.3c5.55,0,10.04,4.5,10.04,10.04s-4.5,10.04-10.04,10.04h-55.3Zm-87.93-116.3c-5.54,0-10.04-4.5-10.04-10.04s4.5-10.05,10.04-10.05h55.3c5.55,0,10.05,4.5,10.05,10.05s-4.5,10.04-10.05,10.04h-55.3Zm-175.77,153.11c-5.54,0-10.05-4.5-10.05-10.04s4.5-10.05,10.05-10.05h55.3c5.55,0,10.05,4.5,10.05,10.05s-4.5,10.04-10.05,10.04h-55.3Zm-60.2-94.92c-5.55,0-10.04-4.5-10.04-10.04s4.5-10.04,10.04-10.04h55.22c5.63,0,10.04,4.5,10.04,10.04s-4.42,10.04-10.04,10.04h-55.22Zm684.04-208.8c-5.54,0-10.04-4.5-10.04-10.05s4.5-10.04,10.04-10.04h22.19v-25.64h-24.6c-4.5,0-8.6-3.06-9.73-7.56l-32.79-130.84h-16.88c-5.55,0-10.05-4.5-10.05-10.05,0-2.81,1.13-5.39,2.98-7.23l90.34-103.36c3.62-4.18,9.97-4.58,14.14-.96,.32,.32,.65,.64,.97,1.04l89.69,103.92c3.62,4.18,3.14,10.53-1.04,14.15-1.85,1.68-4.18,2.49-6.51,2.49h-19.69l-22.26,129.55c-.56,4.98-4.83,8.84-9.97,8.84h-24.51v25.64h20.18c5.54,0,10.04,4.5,10.04,10.04s-4.5,10.05-10.04,10.05h-20.18v248.42h20.18c5.54,0,10.04,4.5,10.04,10.05s-4.5,10.04-10.04,10.04h-20.18v19.77h24.51c5.55,0,10.05,4.5,10.05,10.04v.81l1.36,167.17h97.41c5.55,0,10.04,4.5,10.04,10.05s-4.5,10.05-10.04,10.05h-102.55c-1.45,.8-3.06,1.2-4.75,1.2s-3.37-.4-4.82-1.2h-144.35c-5.54,0-10.04-4.5-10.04-10.05s4.5-10.05,10.04-10.05h69.36l-.96-167.97c0-5.47,4.5-9.96,9.96-10.04h24.68v-19.77h-22.19c-5.54,0-10.04-4.5-10.04-10.04s4.5-10.05,10.04-10.05h22.19v-248.42h-22.19Zm78.68-184.13h-102.95l29.66,118.3h52.97l20.33-118.3Zm-112.36-20.09h130.44l-67.83-78.68-68.32,78.21c2.01-.4,3.94-.24,5.71,.48h0Zm91.87,670.53l-1.29-157.92h-49.27l.88,157.92h49.67Zm-98.13-1622.61c-5.39,1.21-10.77-2.25-11.9-7.63-1.21-5.47,2.25-10.77,7.71-11.98,43.56-9.57,65.5,6.35,76.44,22.83,.48-.73,.96-1.45,1.53-2.17,4.58-6.43,10.45-12.37,17.44-16.8,7.24-4.66,15.59-7.72,24.75-8.2,11.09-.56,23.07,2.58,35.36,11.34,4.5,3.21,5.55,9.49,2.33,13.98-3.13,4.5-9.4,5.55-13.9,2.33-8.28-5.87-16-8.04-22.75-7.63-5.47,.24-10.52,2.17-14.95,5.06-4.75,2.98-8.84,7.08-11.98,11.49-4.74,6.59-7.32,13.67-7.16,18.97,.25,2.98-.88,5.78-2.81,7.8l-.56,.4c-1.45,1.36-3.29,2.25-5.3,2.49-2.09,.24-4.02-.08-5.78-.96l-.48-.25c-2.73-1.52-4.66-4.34-5.06-7.63,0-.08-.08-.88-.48-2.65-2.17-10.12-13.1-41.56-62.45-30.78h0Zm79.81,39.62h0Zm-124.17,207.75c-5.47,1.21-10.77-2.25-11.98-7.63-1.12-5.47,2.25-10.77,7.71-11.98,43.64-9.57,65.58,6.35,76.52,22.82,.48-.72,.96-1.45,1.45-2.17,4.58-6.42,10.52-12.37,17.44-16.79,7.24-4.66,15.59-7.72,24.75-8.2,11.09-.64,23.07,2.57,35.36,11.33,4.58,3.22,5.63,9.49,2.41,13.99-3.22,4.5-9.48,5.54-13.98,2.33-8.28-5.87-15.91-8.04-22.75-7.63-5.46,.24-10.52,2.17-14.95,5.06-4.74,2.97-8.76,7.07-11.98,11.49-4.66,6.59-7.31,13.67-7.15,18.89,.24,3.05-.89,5.87-2.81,7.79l-.48,.48c-1.45,1.29-3.3,2.25-5.39,2.49-2.01,.24-4.02-.08-5.7-.96l-.48-.24c-2.73-1.53-4.74-4.34-5.06-7.63,0-.08-.16-.88-.48-2.65-2.25-10.13-13.18-41.55-62.45-30.78h0Zm79.73,39.62h0Zm-236.45-149.73c-5.47,1.12-10.77-2.33-11.98-7.71-1.12-5.39,2.33-10.77,7.71-11.9,43.64-9.57,65.58,6.35,76.52,22.75,.48-.73,.96-1.45,1.44-2.17,4.58-6.43,10.53-12.37,17.44-16.8,7.24-4.66,15.59-7.71,24.75-8.2,11.09-.56,23.06,2.57,35.44,11.33,4.5,3.22,5.55,9.49,2.33,13.99-3.21,4.5-9.48,5.55-13.98,2.33-8.28-5.86-15.91-7.96-22.74-7.63-5.47,.32-10.53,2.17-14.95,5.06-4.74,2.98-8.76,7.08-11.98,11.5-4.66,6.67-7.31,13.66-7.15,18.96,.24,2.98-.89,5.78-2.81,7.8l-.48,.48c-1.45,1.28-3.29,2.16-5.39,2.41-2.01,.24-4.02-.08-5.7-.97l-.48-.24c-2.73-1.53-4.75-4.26-5.06-7.63,0-.08-.16-.89-.48-2.65-2.25-10.05-13.18-41.56-62.45-30.7h0Zm79.81,39.54l-.08,.08,.08-.08Zm-471.13,1089.43h70.65v-157.21c0-9.73-4.02-18.57-10.37-24.91-6.43-6.43-15.27-10.45-25-10.45s-18.49,4.02-24.92,10.45c-6.43,6.35-10.37,15.19-10.37,24.91v157.21Zm80.69,20.09h-90.74c-5.54,0-10.05-4.5-10.05-10.04v-167.25c0-15.27,6.27-29.09,16.24-39.14,10.05-10.04,23.95-16.32,39.14-16.32s29.17,6.27,39.14,16.32c10.04,10.04,16.31,23.87,16.31,39.14v167.25c0,5.55-4.5,10.04-10.04,10.04h0Zm251.8-363.76l-99.1,57.23,30.3,63.81,104.08-60.04-35.28-61Zm-107.69,39.06l97.73-56.42-27.89-48.22-93.79,54.17,23.95,50.48Zm152.95,39.3l-105.37,60.84,29.26,61.73,110.19-63.65-34.08-58.91Zm44.04,76.27l-111.56,64.46,27.73,58.43,116.06-67.03-32.23-55.86Zm42.27,73.22l-117.42,67.83,27.33,57.63,121.92-70.4-31.83-55.05Zm-593.62-421.22l137.11-65.1c4.9-2.33,10.85-.24,13.26,4.58l34.88,60.52h94.2l16.96-9.81c-3.78-10.12-4.18-20.9-1.53-30.86,2.73-10.04,8.52-19.29,16.96-26.12l-68.4-118.54h0l-12.94-22.43-247.86,207.76h17.36Zm196.83,20.09l11.98,20.66,35.84-20.66h-47.82Zm185.82-79.65l25.88-14.95-32.47-27.25-104.96-88.01-5.39,3.05,63.89,110.67c9.01-2.65,18.32-2.65,27.08-.32,9.97,2.65,19.13,8.44,25.96,16.8h0Zm42.19-1.29l-32.87,18.97c2.73,9.08,2.73,18.49,.4,27.33-1.44,5.14-3.62,10.05-6.5,14.55h111.55l-72.58-60.84Zm-526.75,281.06l-67.83-117.5-57.63,27.41,70.32,121.84,46.3-26.69,8.84-5.06Zm-49.67-126.1l66.95,116.05,55.86-32.23-64.38-111.55-58.43,27.73Zm277.52-5.47l-57.22-99.1-63.89,30.3,60.12,104,26.28-15.19,34.72-20.01Zm-39.06-107.7l56.34,97.65,48.3-27.81-54.17-93.8-50.48,23.95Zm-39.3,152.95l-60.92-105.36-61.64,29.26,63.58,110.11,58.99-34Zm541.3-289.41l57.22,99.1,63.89-30.3-60.04-104-61.08,35.2Zm39.06,107.69l-56.42-97.65-48.22,27.8,54.17,93.8,50.47-23.95Zm-410.05-221.74l99.1-57.22-30.3-63.89-104,60.04,35.2,61.08Zm107.7-39.06l-97.65,56.34,27.8,48.3,93.79-54.17-23.95-50.47Zm341.66,107.86l60.84,105.45,61.73-29.34-63.65-110.11-58.91,34Zm-494.6-147.16l105.45-60.84-29.34-61.72-110.11,63.57,34,58.99Zm570.88,103.12l64.46,111.55,58.43-27.72-66.95-116.06-55.94,32.23Zm-614.92-179.47l111.56-64.37-27.73-58.43-116.05,66.95,32.23,55.86Zm688.14,137.19l67.83,117.43,57.63-27.33-70.32-121.92-55.14,31.82Zm-730.41-210.33l117.5-67.84-27.41-57.7-121.92,70.4,31.83,55.13Zm-135.83,1133.79l8.6-57.79c-.32,0-.64-.08-.88-.08-17.04-2.81-33.92-5.38-50.79-7.71v58.67c14.39,2.17,28.69,4.42,43.08,6.92h0Zm11.49-77.56l5.55-37.29c-2.25,2.65-5.71,4.1-9.32,3.54-17.04-2.81-33.92-5.38-50.79-7.71v33.19c17.92,2.49,35.92,5.22,54.01,8.12,.16,.08,.4,.08,.56,.16h0Zm-627.53-8.28c51.35-7.47,103.2-12.86,155.67-16.23v-33.36c-52.4,3.38-104.32,8.84-155.67,16.4v33.19Zm175.77-17.44c34.56-1.85,69.36-2.81,104.4-2.81,25.48-.08,51.12,.4,76.83,1.37v-33.44c-25.72-.96-51.35-1.45-76.83-1.37-35.04,0-69.84,.96-104.4,2.89v33.35Zm201.33-.64c57.94,2.65,116.53,7.8,175.77,15.43v-33.27c-59.31-7.72-117.9-12.86-175.77-15.59v33.43Zm175.77,35.61c-59.31-7.72-117.9-12.86-175.77-15.59v57.95c58.51,2.73,117.1,8.12,175.77,16.16v-58.51Zm-195.86-16.4c-25.72-.96-51.35-1.45-76.83-1.37-35.04,0-69.84,.96-104.4,2.89v58.51c36.89-2.17,73.78-3.3,110.75-3.3,23.47,0,47.02,.4,70.49,1.21v-57.95Zm-201.33,2.73c-52.4,3.37-104.32,8.84-155.67,16.4v59.15c51.76-7.71,103.67-13.34,155.67-16.96v-58.59Z"/><path class="cls-4" d="M3193.6,2435.56h265.23v-694.56h-265.23v694.56Zm505.05-1394.51c-5.39,1.12-10.77-2.33-11.9-7.71-1.2-5.47,2.25-10.77,7.63-11.98,40.03-8.76,60.6,5.47,71.05,20.5l.72-1.05c4.34-6.03,9.89-11.65,16.4-15.83,6.75-4.34,14.62-7.15,23.23-7.63,10.44-.57,21.7,2.41,33.27,10.6,4.5,3.21,5.55,9.49,2.33,13.98-3.21,4.5-9.48,5.55-13.98,2.33-7.47-5.3-14.39-7.24-20.57-6.91-4.9,.24-9.4,1.93-13.5,4.5-4.26,2.81-7.96,6.51-10.85,10.52-4.18,5.95-6.59,12.3-6.42,16.96,.4,5.3-3.3,10.05-8.6,10.77-5.47,.81-10.61-3.05-11.33-8.52l-.08-.32c0-.08-.08-.73-.4-2.33-2.01-9.16-11.98-37.78-56.98-27.89h0Zm326.79,153.27v-101.59c0-5.55,4.5-10.05,10.04-10.05s10.05,4.5,10.05,10.05v101.67l51.92,145.79,20.9-57.14v-78.44c0-5.55,4.5-10.05,10.05-10.05s10.04,4.5,10.04,10.05v70.08h128.59v-70.08c0-5.55,4.5-10.05,10.05-10.05s10.04,4.5,10.04,10.05v78.44l78.52,214.91c1.93,5.22-.81,11.01-6.03,12.86-1.13,.4-2.25,.65-3.38,.65h-.64v934.15c0,5.55-4.5,10.05-10.05,10.05h-1162c-5.54,0-10.04-4.5-10.04-10.05v-934.15c-5.14-.48-9.24-4.74-9.24-10.04,0-1.53,.32-2.89,.96-4.18l78.28-214.19v-78.44c0-5.55,4.5-10.05,10.05-10.05s10.05,4.5,10.05,10.05v70.08h128.51v-70.08c0-5.55,4.5-10.05,10.05-10.05s10.04,4.5,10.04,10.05v78.44l20.42,55.78,51.43-144.42v-101.67c0-5.55,4.5-10.05,10.05-10.05s10.04,4.5,10.04,10.05v101.59l130.52,344.39h260.24l130.52-344.39Zm61.24,175.37l-51.43-144.5-118.87,313.53h133.9v-27.25h-1.04c-5.55,0-10.05-4.5-10.05-10.04,0-1.53,.32-2.89,.88-4.18l46.61-127.55Zm-663.13,2.58c-.16-.32-.25-.56-.4-.89l-27.97-76.59h-134.62l-71.85,196.59h278.32l-43.48-119.11Zm189.75,166.45l-118.87-313.53-51.04,143.14,47.42,129.63c1.85,5.22-.8,11.01-6.03,12.86-1.12,.4-2.25,.65-3.37,.65h-2.49v27.25h134.38Zm623.92,707.5c0,5.55-4.5,10.04-10.04,10.04s-10.04-4.5-10.04-10.04v-82.38c0-5.54,4.5-10.04,10.04-10.04s10.04,4.5,10.04,10.04v82.38Zm-52.4,22.67c0,5.54-4.5,10.04-10.04,10.04s-10.04-4.5-10.04-10.04v-82.46c0-5.55,4.5-10.04,10.04-10.04s10.04,4.5,10.04,10.04v82.46Zm52.4-178.35c0,5.55-4.5,10.05-10.04,10.05s-10.04-4.5-10.04-10.05v-82.46c0-5.55,4.5-10.05,10.04-10.05s10.04,4.5,10.04,10.05v82.46Zm-52.4,22.58c0,5.55-4.5,10.04-10.04,10.04s-10.04-4.5-10.04-10.04v-82.46c0-5.55,4.5-10.04,10.04-10.04s10.04,4.5,10.04,10.04v82.46Zm-868.89,133.09c0,5.55-4.5,10.04-10.05,10.04s-10.05-4.5-10.05-10.04v-82.38c0-5.54,4.5-10.04,10.05-10.04s10.05,4.5,10.05,10.04v82.38Zm52.4,22.67c0,5.54-4.5,10.04-10.05,10.04s-10.05-4.5-10.05-10.04v-82.46c0-5.55,4.5-10.04,10.05-10.04s10.05,4.5,10.05,10.04v82.46Zm-52.4-178.35c0,5.55-4.5,10.05-10.05,10.05s-10.05-4.5-10.05-10.05v-82.46c0-5.55,4.5-10.05,10.05-10.05s10.05,4.5,10.05,10.05v82.46Zm52.4,22.58c0,5.55-4.5,10.04-10.05,10.04s-10.05-4.5-10.05-10.04v-82.46c0-5.55,4.5-10.04,10.05-10.04s10.05,4.5,10.05,10.04v82.46Zm827.82-206.71v-97.65h-54.49v97.65h54.49Zm0-117.74v-11.57c0-5.55,4.5-10.05,10.04-10.05s10.05,4.5,10.05,10.05v11.57h64.54c5.55,0,10.04,4.5,10.04,10.04v117.74c0,5.54-4.5,10.04-10.04,10.04h-149.17c-5.55,0-10.04-4.5-10.04-10.04v-117.74c0-5.55,4.5-10.04,10.04-10.04h64.54Zm20.09,20.09v97.65h54.49v-97.65h-54.49Zm-277.28,64.54c0,5.55-4.5,10.04-10.05,10.04s-10.04-4.5-10.04-10.04v-82.46c0-5.55,4.5-10.04,10.04-10.04s10.05,4.5,10.05,10.04v82.46Zm52.32,0c0,5.55-4.5,10.04-10.05,10.04s-10.04-4.5-10.04-10.04v-82.46c0-5.55,4.5-10.04,10.04-10.04s10.05,4.5,10.05,10.04v82.46Zm-437.06,0c0,5.55-4.5,10.04-10.05,10.04s-10.04-4.5-10.04-10.04v-82.46c0-5.55,4.5-10.04,10.04-10.04s10.05,4.5,10.05,10.04v82.46Zm52.4,0c0,5.55-4.5,10.04-10.04,10.04s-10.05-4.5-10.05-10.04v-82.46c0-5.55,4.42-10.04,10.05-10.04s10.04,4.5,10.04,10.04v82.46Zm676.41-191.04c0,5.55-4.51,10.05-10.05,10.05s-10.05-4.5-10.05-10.05v-139.36c0-5.55,4.42-10.05,10.05-10.05s10.05,4.5,10.05,10.05v139.36Zm-61.57,0c0,5.55-4.5,10.05-10.04,10.05s-10.04-4.5-10.04-10.05v-139.36c0-5.55,4.5-10.05,10.04-10.05s10.04,4.5,10.04,10.05v139.36Zm-61,0c0,5.55-4.5,10.05-10.04,10.05s-10.04-4.5-10.04-10.05v-139.36c0-5.55,4.5-10.05,10.04-10.05s10.04,4.5,10.04,10.05v139.36Zm-766.17,0c0,5.55-4.5,10.05-10.05,10.05s-10.05-4.5-10.05-10.05v-139.36c0-5.55,4.5-10.05,10.05-10.05s10.05,4.5,10.05,10.05v139.36Zm-61.57,0c0,5.55-4.5,10.05-10.05,10.05s-10.05-4.5-10.05-10.05v-139.36c0-5.55,4.5-10.05,10.05-10.05s10.05,4.5,10.05,10.05v139.36Zm-61,0c0,5.55-4.5,10.05-10.05,10.05s-10.05-4.5-10.05-10.05v-139.36c0-5.55,4.5-10.05,10.05-10.05s10.05,4.5,10.05,10.05v139.36Zm46.86,224.15v-97.65h-54.49v97.65h54.49Zm0-117.74v-11.57c0-5.55,4.5-10.05,10.05-10.05s10.05,4.5,10.05,10.05v11.57h64.54c5.55,0,10.04,4.5,10.04,10.04v117.74c0,5.54-4.5,10.04-10.04,10.04h-149.17c-5.54,0-10.04-4.5-10.04-10.04v-117.74c0-5.55,4.5-10.04,10.04-10.04h64.54Zm20.09,20.09v97.65h54.49v-97.65h-54.49Zm796.71-513.97l-71.85,196.59h278.41l-71.85-196.59h-134.7Zm-277.04,897.74v-269.48h-160.5v269.48c2.89-3.86,6.03-7.47,9.4-10.85,18.16-18.17,43.24-29.42,70.89-29.42s52.64,11.25,70.8,29.42c3.38,3.37,6.51,6.99,9.4,10.85h0Zm0-289.57v-161.95h-160.5v161.95h160.5Zm0-182.04v-58.27c0-5.54,4.5-10.04,10.05-10.04s10.04,4.5,10.04,10.04v58.27h171.84v-162.1h-571.36v162.1h198.84v-58.27c0-5.54,4.5-10.04,10.04-10.04s10.04,4.5,10.04,10.04v58.27h160.5Zm20.09,20.09v161.95h115.09c5.62,0,10.05,4.5,10.05,10.04v522.57h46.7v-694.56h-171.84Zm0,182.04v512.53h25v-145.39c0-13.75,5.62-26.28,14.7-35.36,9.08-9.08,21.62-14.71,35.37-14.71,11.25,0,21.62,3.78,29.98,10.04v-327.11h-105.05Zm-200.68,329.52v-329.52h-111.23v327.11c8.44-6.27,18.8-10.04,30.06-10.04,13.74,0,26.28,5.63,35.36,14.71,9.08,9.08,14.71,21.62,14.71,35.36v145.39h31.1v-183.01Zm0-349.61v-161.95h-198.84v694.56h67.51v-522.57c0-5.55,4.5-10.04,10.05-10.04h121.28Zm305.73,387.23c0-8.2-3.38-15.68-8.76-21.14-5.46-5.47-12.94-8.84-21.21-8.84s-15.75,3.37-21.14,8.84c-5.47,5.46-8.84,12.94-8.84,21.14v145.39h59.96v-145.39Zm-356.93,145.39v-145.39c0-8.2-3.38-15.68-8.84-21.14-5.47-5.47-12.94-8.84-21.14-8.84s-15.75,3.37-21.22,8.84c-5.47,5.46-8.84,12.94-8.84,21.14v145.39h60.04Zm231.79,0v-183.01c0-22.02-9-42.12-23.54-56.66-14.55-14.55-34.64-23.55-56.66-23.55s-42.2,9-56.74,23.55c-14.55,14.54-23.55,34.64-23.55,56.66v183.01h160.5Zm-399.52-714.66v-209.44h-265.23v209.44h265.23Zm876.68,0v-209.44h-265.14v209.44h265.14Zm-265.14,20.09v694.56h265.14v-694.56h-265.14Z"/><path class="cls-4" d="M3577.85,807.97c-5.39,1.12-10.69-2.33-11.9-7.72-1.2-5.38,2.25-10.77,7.72-11.9,40.03-8.84,60.52,5.39,70.97,20.42l.73-1.04c4.34-6.03,9.88-11.57,16.39-15.75,6.75-4.34,14.63-7.24,23.31-7.71,10.37-.56,21.62,2.41,33.2,10.61,4.5,3.21,5.55,9.48,2.33,13.98-3.22,4.5-9.4,5.55-13.9,2.41-7.56-5.39-14.47-7.31-20.66-6.99-4.82,.24-9.4,2.01-13.42,4.58-4.34,2.73-8.04,6.43-10.85,10.45-4.26,5.95-6.67,12.3-6.51,17.04,.4,5.22-3.3,9.96-8.6,10.69-5.47,.8-10.53-2.97-11.34-8.52l-.08-.32c0-.09-.08-.73-.4-2.34-2.01-9.16-11.98-37.77-56.99-27.89h0Z"/><path class="cls-4" d="M4507.26,1906.8c0,5.55-4.5,10.04-10.05,10.04s-10.05-4.5-10.05-10.04v-648.11h-40.43c-5.55,0-10.04-4.5-10.04-10.04,0-3.21,1.44-6.03,3.7-7.8l76.59-69.92c-7.63-6.59-15.11-17.44-14.47-34,.72-18.48,10.29-34.32,21.06-52.16,11.9-19.69,25.39-42.03,27.33-71.37h-1.45c-5.54,0-10.05-4.5-10.05-10.05s4.5-10.04,10.05-10.04h.81v-68.48c-10.13-9.88-37.54-40.67-30.87-79.09,5.22-30.54,21.54-47.58,38.02-64.78,18.89-19.77,38.1-39.86,35.77-84.63-.16-4.02,2.01-7.55,5.3-9.32v-77.96c0-5.63,4.5-10.05,10.04-10.05s10.04,4.42,10.04,10.05v78.76c2.41,1.85,4.02,4.82,3.94,8.12-.65,44.84,19.36,65.02,39.06,84.87,17.03,17.2,33.91,34.15,40.34,64.62,8.12,38.5-18.4,69.44-28.13,79.33v68.56h.4c5.55,0,10.05,4.5,10.05,10.04s-4.5,10.05-10.05,10.05h-.8c2.01,29.34,15.51,51.68,27.41,71.37,10.77,17.84,20.33,33.68,21.05,52.16,.65,16.4-6.67,27.09-14.23,33.76l77.32,70.49c4.1,3.78,4.34,10.12,.64,14.22-2.01,2.17-4.66,3.21-7.39,3.21v.08h-38.42v576.1c0,5.55-4.5,10.04-10.04,10.04s-10.04-4.5-10.04-10.04v-101.18h-212.42v173.2Zm101.35-1167.14c-7.31,24.43-22.1,39.86-36.65,55.13-14.39,15.03-28.53,29.82-32.79,54.33-5.14,29.41,17.12,53.77,25,61.24h95.64c7.56-7.55,28.62-31.75,22.51-60.92-5.23-24.51-20.01-39.46-34.96-54.49-15.19-15.27-30.46-30.79-38.74-55.3h0Zm44.77,273.74h-82.38c-2.01,34.88-17.04,59.88-30.22,81.74-9.4,15.51-17.68,29.33-18.24,42.59-.57,14.79,10.85,21.14,14.95,22.9h149.41c4.1-1.76,15.51-8.11,14.95-22.9-.56-13.26-8.84-27.08-18.25-42.59-13.18-21.86-28.29-46.86-30.22-81.74h0Zm-83.03-20.09h83.34v-62.85h-83.34v62.85Zm-73.14,245.29h255.02l-63.41-57.87h-152.71l-63.49,57.87h24.59Zm222.47,474.91v-73.46h-212.42v73.46h212.42Zm0-93.55v-100.46h-212.42v100.46h212.42Zm0-120.56v-135.83h-140.17v135.83h140.17Zm-160.26,0v-135.83h-52.16v135.83h52.16Zm160.26-155.92v-84.79h-212.42v84.79h212.42Z"/><g><path d="M3783.47,2611.98h1.04v7.21h3.45v.88h-4.5v-8.08Z"/><path d="M3794.18,2617.12c0,2.15-1.49,3.08-2.89,3.08-1.57,0-2.78-1.15-2.78-2.99,0-1.94,1.27-3.08,2.88-3.08s2.79,1.21,2.79,2.99Zm-4.61,.06c0,1.27,.73,2.23,1.76,2.23s1.76-.95,1.76-2.25c0-.98-.49-2.23-1.74-2.23s-1.79,1.15-1.79,2.25Z"/><path d="M3795.52,2616.07c0-.68-.01-1.27-.05-1.81h.92l.04,1.14h.05c.26-.78,.9-1.27,1.61-1.27,.12,0,.2,.01,.3,.04v1c-.11-.02-.22-.04-.36-.04-.74,0-1.27,.56-1.42,1.36-.02,.14-.05,.31-.05,.49v3.09h-1.04v-3.99Z"/><path d="M3799.91,2617.35c.02,1.43,.94,2.02,1.99,2.02,.76,0,1.21-.13,1.61-.3l.18,.75c-.37,.17-1.01,.36-1.93,.36-1.79,0-2.85-1.18-2.85-2.93s1.03-3.13,2.72-3.13c1.9,0,2.4,1.67,2.4,2.73,0,.22-.02,.38-.04,.49h-4.08Zm3.09-.75c.01-.67-.28-1.71-1.46-1.71-1.07,0-1.54,.98-1.62,1.71h3.08Z"/><path d="M3805.33,2615.83c0-.6-.01-1.09-.05-1.57h.92l.05,.94h.04c.32-.55,.86-1.07,1.82-1.07,.79,0,1.39,.48,1.64,1.16h.02c.18-.32,.41-.58,.65-.76,.35-.26,.73-.41,1.28-.41,.77,0,1.91,.5,1.91,2.52v3.42h-1.03v-3.29c0-1.12-.41-1.79-1.26-1.79-.6,0-1.07,.44-1.25,.96-.05,.14-.08,.33-.08,.53v3.59h-1.03v-3.48c0-.92-.41-1.59-1.21-1.59-.66,0-1.14,.53-1.31,1.06-.06,.16-.08,.34-.08,.52v3.5h-1.03v-4.23Z"/><path d="M3902.54,2612.63c.01,.36-.25,.65-.67,.65-.37,0-.64-.29-.64-.65s.28-.66,.66-.66,.65,.29,.65,.66Zm-1.18,7.44v-5.8h1.06v5.8h-1.06Z"/><path d="M3904.17,2616.16c0-.74-.02-1.34-.05-1.89h.95l.05,1h.02c.43-.71,1.12-1.13,2.06-1.13,1.4,0,2.46,1.19,2.46,2.95,0,2.09-1.27,3.12-2.64,3.12-.77,0-1.44-.34-1.79-.91h-.02v3.15h-1.04v-6.29Zm1.04,1.55c0,.16,.02,.3,.05,.43,.19,.73,.83,1.24,1.58,1.24,1.12,0,1.76-.91,1.76-2.24,0-1.16-.61-2.16-1.73-2.16-.72,0-1.39,.52-1.6,1.31-.04,.13-.07,.29-.07,.43v1Z"/><path d="M3910.85,2618.99c.31,.2,.86,.42,1.39,.42,.77,0,1.13-.38,1.13-.86s-.3-.78-1.08-1.07c-1.04-.37-1.54-.95-1.54-1.64,0-.94,.76-1.7,2-1.7,.59,0,1.1,.17,1.43,.36l-.26,.77c-.23-.14-.65-.34-1.19-.34-.62,0-.97,.36-.97,.79,0,.48,.35,.7,1.1,.98,1.01,.38,1.52,.89,1.52,1.75,0,1.02-.79,1.74-2.17,1.74-.64,0-1.22-.16-1.63-.4l.26-.8Z"/><path d="M3920.61,2618.48c0,.6,.01,1.13,.05,1.58h-.94l-.06-.95h-.02c-.28,.47-.89,1.08-1.92,1.08-.91,0-2-.5-2-2.54v-3.39h1.06v3.21c0,1.1,.34,1.85,1.3,1.85,.71,0,1.2-.49,1.39-.96,.06-.16,.1-.35,.1-.54v-3.56h1.06v4.22Z"/><path d="M3922.36,2615.83c0-.6-.01-1.09-.05-1.57h.92l.05,.94h.04c.32-.55,.86-1.07,1.82-1.07,.79,0,1.39,.48,1.64,1.16h.02c.18-.32,.41-.58,.65-.76,.35-.26,.73-.41,1.28-.41,.77,0,1.91,.5,1.91,2.52v3.42h-1.03v-3.29c0-1.12-.41-1.79-1.26-1.79-.6,0-1.07,.44-1.25,.96-.05,.14-.08,.33-.08,.53v3.59h-1.03v-3.48c0-.92-.41-1.59-1.21-1.59-.66,0-1.14,.53-1.31,1.06-.06,.16-.08,.34-.08,.52v3.5h-1.03v-4.23Z"/><path d="M4025.97,2611.55v7.02c0,.52,.01,1.1,.05,1.5h-.95l-.05-1.01h-.02c-.32,.65-1.03,1.14-1.98,1.14-1.4,0-2.48-1.19-2.48-2.95-.01-1.93,1.19-3.12,2.6-3.12,.89,0,1.49,.42,1.75,.89h.02v-3.47h1.06Zm-1.06,5.07c0-.13-.01-.31-.05-.44-.16-.67-.73-1.22-1.52-1.22-1.09,0-1.74,.96-1.74,2.24,0,1.17,.58,2.15,1.72,2.15,.71,0,1.35-.47,1.55-1.26,.04-.14,.05-.29,.05-.46v-1.01Z"/><path d="M4032.98,2617.12c0,2.15-1.49,3.08-2.89,3.08-1.57,0-2.78-1.15-2.78-2.99,0-1.94,1.27-3.08,2.88-3.08s2.79,1.21,2.79,2.99Zm-4.61,.06c0,1.27,.73,2.23,1.76,2.23s1.76-.95,1.76-2.25c0-.98-.49-2.23-1.74-2.23s-1.79,1.15-1.79,2.25Z"/><path d="M4034.32,2611.55h1.06v8.52h-1.06v-8.52Z"/><path d="M4042.4,2617.12c0,2.15-1.49,3.08-2.89,3.08-1.57,0-2.78-1.15-2.78-2.99,0-1.94,1.27-3.08,2.88-3.08s2.79,1.21,2.79,2.99Zm-4.61,.06c0,1.27,.73,2.23,1.76,2.23s1.76-.95,1.76-2.25c0-.98-.49-2.23-1.74-2.23s-1.79,1.15-1.79,2.25Z"/><path d="M4043.74,2616.07c0-.68-.01-1.27-.05-1.81h.92l.04,1.14h.05c.26-.78,.9-1.27,1.61-1.27,.12,0,.2,.01,.3,.04v1c-.11-.02-.22-.04-.36-.04-.74,0-1.27,.56-1.42,1.36-.02,.14-.05,.31-.05,.49v3.09h-1.04v-3.99Z"/><path d="M4050.06,2618.99c.31,.2,.86,.42,1.39,.42,.77,0,1.13-.38,1.13-.86s-.3-.78-1.08-1.07c-1.04-.37-1.54-.95-1.54-1.64,0-.94,.76-1.7,2-1.7,.59,0,1.1,.17,1.43,.36l-.26,.77c-.23-.14-.65-.34-1.19-.34-.62,0-.97,.36-.97,.79,0,.48,.35,.7,1.1,.98,1.01,.38,1.52,.89,1.52,1.75,0,1.02-.79,1.74-2.17,1.74-.64,0-1.22-.16-1.63-.4l.26-.8Z"/><path d="M4056.13,2612.63c.01,.36-.25,.65-.67,.65-.37,0-.64-.29-.64-.65s.28-.66,.66-.66,.65,.29,.65,.66Zm-1.18,7.44v-5.8h1.06v5.8h-1.06Z"/><path d="M4059.04,2612.59v1.67h1.51v.8h-1.51v3.13c0,.72,.2,1.13,.79,1.13,.28,0,.48-.04,.61-.07l.05,.79c-.2,.08-.53,.14-.94,.14-.49,0-.89-.16-1.14-.44-.3-.31-.41-.83-.41-1.51v-3.17h-.9v-.8h.9v-1.39l1.03-.28Z"/><path d="M4140.44,2620.07l-.08-.73h-.04c-.32,.46-.95,.86-1.77,.86-1.18,0-1.77-.83-1.77-1.67,0-1.4,1.25-2.17,3.49-2.16v-.12c0-.48-.13-1.34-1.32-1.34-.54,0-1.1,.17-1.51,.43l-.24-.7c.48-.31,1.18-.52,1.91-.52,1.77,0,2.21,1.21,2.21,2.37v2.17c0,.5,.02,1,.1,1.39h-.96Zm-.16-2.96c-1.15-.02-2.46,.18-2.46,1.31,0,.68,.46,1.01,1,1.01,.76,0,1.24-.48,1.4-.97,.04-.11,.06-.23,.06-.34v-1.01Z"/><path d="M4143.01,2615.83c0-.6-.01-1.09-.05-1.57h.92l.05,.94h.04c.32-.55,.86-1.07,1.82-1.07,.79,0,1.39,.48,1.64,1.16h.02c.18-.32,.41-.58,.65-.76,.35-.26,.73-.41,1.28-.41,.77,0,1.91,.5,1.91,2.52v3.42h-1.03v-3.29c0-1.12-.41-1.79-1.26-1.79-.6,0-1.07,.44-1.25,.96-.05,.14-.08,.33-.08,.53v3.59h-1.03v-3.48c0-.92-.41-1.59-1.21-1.59-.66,0-1.14,.53-1.31,1.06-.06,.16-.08,.34-.08,.52v3.5h-1.03v-4.23Z"/><path d="M4153.61,2617.35c.02,1.43,.94,2.02,1.99,2.02,.76,0,1.21-.13,1.61-.3l.18,.75c-.37,.17-1.01,.36-1.93,.36-1.79,0-2.85-1.18-2.85-2.93s1.03-3.13,2.72-3.13c1.9,0,2.4,1.67,2.4,2.73,0,.22-.02,.38-.04,.49h-4.08Zm3.09-.75c.01-.67-.28-1.71-1.46-1.71-1.07,0-1.54,.98-1.62,1.71h3.08Z"/><path d="M4160.3,2612.59v1.67h1.51v.8h-1.51v3.13c0,.72,.2,1.13,.79,1.13,.28,0,.48-.04,.61-.07l.05,.79c-.2,.08-.53,.14-.94,.14-.49,0-.89-.16-1.14-.44-.3-.31-.41-.83-.41-1.51v-3.17h-.9v-.8h.9v-1.39l1.03-.28Z"/><path d="M4162.28,2621.54c.26-.71,.59-1.99,.72-2.87l1.18-.12c-.28,1.02-.8,2.35-1.14,2.91l-.76,.07Z"/><path d="M4259.29,2619.85c-.28,.14-.89,.34-1.67,.34-1.75,0-2.89-1.19-2.89-2.96s1.22-3.08,3.12-3.08c.62,0,1.18,.16,1.46,.3l-.24,.82c-.25-.14-.65-.28-1.22-.28-1.33,0-2.05,.98-2.05,2.19,0,1.34,.86,2.17,2.02,2.17,.6,0,1-.16,1.3-.29l.18,.79Z"/><path d="M4265.71,2617.12c0,2.15-1.49,3.08-2.89,3.08-1.57,0-2.78-1.15-2.78-2.99,0-1.94,1.27-3.08,2.88-3.08s2.79,1.21,2.79,2.99Zm-4.61,.06c0,1.27,.73,2.23,1.76,2.23s1.76-.95,1.76-2.25c0-.98-.49-2.23-1.74-2.23s-1.79,1.15-1.79,2.25Z"/><path d="M4267.04,2615.83c0-.6-.01-1.09-.05-1.57h.94l.06,.96h.02c.29-.55,.96-1.09,1.92-1.09,.8,0,2.05,.48,2.05,2.47v3.47h-1.06v-3.35c0-.94-.35-1.72-1.34-1.72-.7,0-1.24,.49-1.42,1.08-.05,.13-.07,.31-.07,.49v3.49h-1.06v-4.23Z"/><path d="M4273.56,2618.99c.31,.2,.86,.42,1.39,.42,.77,0,1.13-.38,1.13-.86s-.3-.78-1.08-1.07c-1.04-.37-1.54-.95-1.54-1.64,0-.94,.76-1.7,2-1.7,.59,0,1.1,.17,1.43,.36l-.26,.77c-.23-.14-.65-.34-1.19-.34-.62,0-.97,.36-.97,.79,0,.48,.35,.7,1.1,.98,1.01,.38,1.52,.89,1.52,1.75,0,1.02-.79,1.74-2.17,1.74-.64,0-1.22-.16-1.63-.4l.26-.8Z"/><path d="M4279.04,2617.35c.02,1.43,.94,2.02,1.99,2.02,.76,0,1.21-.13,1.61-.3l.18,.75c-.37,.17-1.01,.36-1.93,.36-1.79,0-2.85-1.18-2.85-2.93s1.03-3.13,2.72-3.13c1.9,0,2.4,1.67,2.4,2.73,0,.22-.02,.38-.04,.49h-4.08Zm3.09-.75c.01-.67-.28-1.71-1.46-1.71-1.07,0-1.54,.98-1.62,1.71h3.08Z"/><path d="M4288.6,2619.85c-.28,.14-.89,.34-1.67,.34-1.75,0-2.89-1.19-2.89-2.96s1.22-3.08,3.12-3.08c.62,0,1.18,.16,1.46,.3l-.24,.82c-.25-.14-.65-.28-1.22-.28-1.33,0-2.05,.98-2.05,2.19,0,1.34,.86,2.17,2.02,2.17,.6,0,1-.16,1.3-.29l.18,.79Z"/><path d="M4292.29,2616.43v.78h-2.96v-.78h2.96Z"/><path d="M4374.33,2612.59v1.67h1.51v.8h-1.51v3.13c0,.72,.2,1.13,.79,1.13,.28,0,.48-.04,.61-.07l.05,.79c-.2,.08-.53,.14-.94,.14-.49,0-.89-.16-1.14-.44-.3-.31-.41-.83-.41-1.51v-3.17h-.9v-.8h.9v-1.39l1.03-.28Z"/><path d="M4377.54,2617.35c.02,1.43,.94,2.02,1.99,2.02,.76,0,1.21-.13,1.61-.3l.18,.75c-.37,.17-1.01,.36-1.93,.36-1.79,0-2.85-1.18-2.85-2.93s1.03-3.13,2.72-3.13c1.9,0,2.4,1.67,2.4,2.73,0,.22-.02,.38-.04,.49h-4.08Zm3.09-.75c.01-.67-.28-1.71-1.46-1.71-1.07,0-1.54,.98-1.62,1.71h3.08Z"/><path d="M4384.24,2612.59v1.67h1.51v.8h-1.51v3.13c0,.72,.2,1.13,.79,1.13,.28,0,.48-.04,.61-.07l.05,.79c-.2,.08-.53,.14-.94,.14-.49,0-.89-.16-1.14-.44-.3-.31-.41-.83-.41-1.51v-3.17h-.9v-.8h.9v-1.39l1.03-.28Z"/><path d="M4391.8,2618.48c0,.6,.01,1.13,.05,1.58h-.94l-.06-.95h-.02c-.28,.47-.89,1.08-1.92,1.08-.91,0-2-.5-2-2.54v-3.39h1.06v3.21c0,1.1,.34,1.85,1.3,1.85,.71,0,1.2-.49,1.39-.96,.06-.16,.1-.35,.1-.54v-3.56h1.06v4.22Z"/><path d="M4394.14,2617.35c.02,1.43,.94,2.02,1.99,2.02,.76,0,1.21-.13,1.61-.3l.18,.75c-.37,.17-1.01,.36-1.93,.36-1.79,0-2.85-1.18-2.85-2.93s1.03-3.13,2.72-3.13c1.9,0,2.4,1.67,2.4,2.73,0,.22-.02,.38-.04,.49h-4.08Zm3.09-.75c.01-.67-.28-1.71-1.46-1.71-1.07,0-1.54,.98-1.62,1.71h3.08Z"/><path d="M4399.56,2616.07c0-.68-.01-1.27-.05-1.81h.92l.04,1.14h.05c.26-.78,.9-1.27,1.61-1.27,.12,0,.2,.01,.3,.04v1c-.11-.02-.22-.04-.36-.04-.74,0-1.27,.56-1.42,1.36-.02,.14-.05,.31-.05,.49v3.09h-1.04v-3.99Z"/><path d="M4495.81,2620.07l-.08-.73h-.04c-.32,.46-.95,.86-1.77,.86-1.18,0-1.77-.83-1.77-1.67,0-1.4,1.25-2.17,3.49-2.16v-.12c0-.48-.13-1.34-1.32-1.34-.54,0-1.1,.17-1.51,.43l-.24-.7c.48-.31,1.18-.52,1.91-.52,1.77,0,2.21,1.21,2.21,2.37v2.17c0,.5,.02,1,.1,1.39h-.96Zm-.16-2.96c-1.15-.02-2.46,.18-2.46,1.31,0,.68,.46,1.01,1,1.01,.76,0,1.24-.48,1.4-.97,.04-.11,.06-.23,.06-.34v-1.01Z"/><path d="M4503.39,2611.55v7.02c0,.52,.01,1.1,.05,1.5h-.95l-.05-1.01h-.02c-.32,.65-1.03,1.14-1.98,1.14-1.4,0-2.48-1.19-2.48-2.95-.01-1.93,1.19-3.12,2.6-3.12,.89,0,1.49,.42,1.75,.89h.02v-3.47h1.06Zm-1.06,5.07c0-.13-.01-.31-.05-.44-.16-.67-.73-1.22-1.52-1.22-1.09,0-1.74,.96-1.74,2.24,0,1.17,.58,2.15,1.72,2.15,.71,0,1.35-.47,1.55-1.26,.04-.14,.05-.29,.05-.46v-1.01Z"/><path d="M4506.32,2612.63c.01,.36-.25,.65-.67,.65-.37,0-.64-.29-.64-.65s.28-.66,.66-.66,.65,.29,.65,.66Zm-1.18,7.44v-5.8h1.06v5.8h-1.06Z"/><path d="M4510.4,2616.43v.78h-2.96v-.78h2.96Z"/><path d="M3698.1,2630.56c0-.74-.02-1.34-.05-1.89h.95l.05,1h.02c.43-.71,1.12-1.13,2.06-1.13,1.4,0,2.46,1.19,2.46,2.95,0,2.09-1.27,3.12-2.64,3.12-.77,0-1.44-.34-1.79-.91h-.02v3.15h-1.04v-6.29Zm1.04,1.55c0,.16,.02,.3,.05,.43,.19,.73,.83,1.24,1.58,1.24,1.12,0,1.76-.91,1.76-2.24,0-1.16-.61-2.16-1.73-2.16-.72,0-1.39,.52-1.6,1.31-.04,.13-.07,.29-.07,.43v1Z"/><path d="M3706.1,2627.03c.01,.36-.25,.65-.67,.65-.37,0-.64-.29-.64-.65s.28-.66,.66-.66,.65,.29,.65,.66Zm-1.18,7.44v-5.8h1.06v5.8h-1.06Z"/><path d="M3707.59,2633.39c.31,.2,.86,.42,1.39,.42,.77,0,1.13-.38,1.13-.86s-.3-.78-1.08-1.07c-1.04-.37-1.54-.95-1.54-1.64,0-.94,.76-1.7,2-1.7,.59,0,1.1,.17,1.43,.36l-.26,.77c-.23-.14-.65-.34-1.19-.34-.62,0-.97,.36-.97,.79,0,.48,.35,.7,1.1,.98,1.01,.38,1.52,.89,1.52,1.75,0,1.02-.79,1.74-2.17,1.74-.64,0-1.22-.16-1.63-.4l.26-.8Z"/><path d="M3714.93,2630.83v.78h-2.96v-.78h2.96Z"/><path d="M3774.04,2634.25c-.28,.14-.89,.34-1.67,.34-1.75,0-2.89-1.19-2.89-2.96s1.22-3.08,3.12-3.08c.62,0,1.18,.16,1.46,.3l-.24,.82c-.25-.14-.65-.28-1.22-.28-1.33,0-2.05,.98-2.05,2.19,0,1.34,.86,2.17,2.02,2.17,.6,0,1-.16,1.3-.29l.18,.79Z"/><path d="M3776.46,2627.03c.01,.36-.25,.65-.67,.65-.37,0-.64-.29-.64-.65s.28-.66,.66-.66,.65,.29,.65,.66Zm-1.18,7.44v-5.8h1.06v5.8h-1.06Z"/><path d="M3778.09,2630.23c0-.6-.01-1.09-.05-1.57h.94l.06,.96h.02c.29-.55,.96-1.09,1.92-1.09,.8,0,2.05,.48,2.05,2.47v3.47h-1.06v-3.35c0-.94-.35-1.72-1.34-1.72-.7,0-1.24,.49-1.42,1.08-.05,.13-.07,.31-.07,.49v3.49h-1.06v-4.23Z"/><path d="M3789.75,2628.66c-.02,.42-.05,.89-.05,1.59v3.37c0,1.33-.26,2.15-.83,2.65-.56,.53-1.38,.7-2.11,.7s-1.46-.17-1.93-.48l.26-.8c.38,.24,.98,.46,1.7,.46,1.08,0,1.87-.56,1.87-2.03v-.65h-.02c-.32,.54-.95,.97-1.85,.97-1.44,0-2.47-1.22-2.47-2.83,0-1.97,1.28-3.08,2.61-3.08,1.01,0,1.56,.53,1.81,1.01h.02l.05-.88h.92Zm-1.09,2.29c0-.18-.01-.34-.06-.48-.19-.61-.71-1.12-1.48-1.12-1.01,0-1.73,.85-1.73,2.2,0,1.14,.58,2.09,1.72,2.09,.65,0,1.24-.41,1.46-1.08,.06-.18,.08-.38,.08-.56v-1.04Z"/><path d="M3816.65,2631.75c.02,1.43,.94,2.02,1.99,2.02,.76,0,1.21-.13,1.61-.3l.18,.75c-.37,.17-1.01,.36-1.93,.36-1.79,0-2.85-1.18-2.85-2.93s1.03-3.13,2.72-3.13c1.9,0,2.4,1.67,2.4,2.73,0,.22-.02,.38-.04,.49h-4.08Zm3.09-.75c.01-.67-.28-1.71-1.46-1.71-1.07,0-1.54,.98-1.62,1.71h3.08Z"/><path d="M3822.08,2625.95h1.06v8.52h-1.06v-8.52Z"/><path d="M3826.08,2627.03c.01,.36-.25,.65-.67,.65-.37,0-.64-.29-.64-.65s.28-.66,.66-.66,.65,.29,.65,.66Zm-1.18,7.44v-5.8h1.06v5.8h-1.06Z"/><path d="M3828.99,2626.99v1.67h1.51v.8h-1.51v3.13c0,.72,.2,1.13,.79,1.13,.28,0,.48-.04,.61-.07l.05,.79c-.2,.08-.53,.14-.94,.14-.49,0-.89-.16-1.14-.44-.3-.31-.41-.83-.41-1.51v-3.17h-.9v-.8h.9v-1.39l1.03-.28Z"/><path d="M3830.97,2635.94c.26-.71,.59-1.99,.72-2.87l1.18-.12c-.28,1.02-.8,2.35-1.14,2.91l-.76,.07Z"/><path d="M3887.69,2633.39c.31,.2,.86,.42,1.39,.42,.77,0,1.13-.38,1.13-.86s-.3-.78-1.08-1.07c-1.04-.37-1.54-.95-1.54-1.64,0-.94,.76-1.7,2-1.7,.59,0,1.1,.17,1.43,.36l-.26,.77c-.23-.14-.65-.34-1.19-.34-.62,0-.97,.36-.97,.79,0,.48,.35,.7,1.1,.98,1.01,.38,1.52,.89,1.52,1.75,0,1.02-.79,1.74-2.17,1.74-.64,0-1.22-.16-1.63-.4l.26-.8Z"/><path d="M3893.18,2631.75c.02,1.43,.94,2.02,1.99,2.02,.76,0,1.21-.13,1.61-.3l.18,.75c-.37,.17-1.01,.36-1.93,.36-1.79,0-2.85-1.18-2.85-2.93s1.03-3.13,2.72-3.13c1.9,0,2.4,1.67,2.4,2.73,0,.22-.02,.38-.04,.49h-4.08Zm3.09-.75c.01-.67-.28-1.71-1.46-1.71-1.07,0-1.54,.98-1.62,1.71h3.08Z"/><path d="M3903.61,2625.95v7.02c0,.52,.01,1.1,.05,1.5h-.95l-.05-1.01h-.02c-.32,.65-1.03,1.14-1.98,1.14-1.4,0-2.48-1.19-2.48-2.95-.01-1.93,1.19-3.12,2.6-3.12,.89,0,1.49,.42,1.75,.89h.02v-3.47h1.06Zm-1.06,5.07c0-.13-.01-.31-.05-.44-.16-.67-.73-1.22-1.52-1.22-1.09,0-1.74,.96-1.74,2.24,0,1.17,.58,2.15,1.72,2.15,.71,0,1.35-.47,1.55-1.26,.04-.14,.05-.29,.05-.46v-1.01Z"/><path d="M3731.6,2654.75v7.02c0,.52,.01,1.1,.05,1.5h-.95l-.05-1.01h-.02c-.32,.65-1.03,1.14-1.98,1.14-1.4,0-2.48-1.19-2.48-2.95-.01-1.93,1.19-3.12,2.6-3.12,.89,0,1.49,.42,1.75,.89h.02v-3.47h1.06Zm-1.06,5.07c0-.13-.01-.31-.05-.44-.16-.67-.73-1.22-1.52-1.22-1.09,0-1.74,.96-1.74,2.24,0,1.17,.58,2.15,1.72,2.15,.71,0,1.35-.47,1.55-1.26,.04-.14,.05-.29,.05-.46v-1.01Z"/><path d="M3734.53,2655.83c.01,.36-.25,.65-.67,.65-.37,0-.64-.29-.64-.65s.28-.66,.66-.66,.65,.29,.65,.66Zm-1.18,7.44v-5.8h1.06v5.8h-1.06Z"/><path d="M3739.38,2663.27l-.08-.73h-.04c-.32,.46-.95,.86-1.77,.86-1.18,0-1.77-.83-1.77-1.67,0-1.4,1.25-2.17,3.49-2.16v-.12c0-.48-.13-1.34-1.32-1.34-.54,0-1.1,.17-1.51,.43l-.24-.7c.48-.31,1.18-.52,1.91-.52,1.77,0,2.21,1.21,2.21,2.37v2.17c0,.5,.02,1,.1,1.39h-.96Zm-.16-2.96c-1.15-.02-2.46,.18-2.46,1.31,0,.68,.46,1.01,1,1.01,.76,0,1.24-.48,1.4-.97,.04-.11,.06-.23,.06-.34v-1.01Z"/><path d="M3741.95,2659.03c0-.6-.01-1.09-.05-1.57h.92l.05,.94h.04c.32-.55,.86-1.07,1.82-1.07,.79,0,1.39,.48,1.64,1.16h.02c.18-.32,.41-.58,.65-.76,.35-.26,.73-.41,1.28-.41,.77,0,1.91,.5,1.91,2.52v3.42h-1.03v-3.29c0-1.12-.41-1.79-1.26-1.79-.6,0-1.07,.44-1.25,.96-.05,.14-.08,.33-.08,.53v3.59h-1.03v-3.48c0-.92-.41-1.59-1.21-1.59-.66,0-1.14,.53-1.31,1.06-.06,.16-.08,.34-.08,.52v3.5h-1.03v-4.23Z"/><path d="M3844.51,2659.03c0-.6-.01-1.09-.05-1.57h.94l.06,.96h.02c.29-.55,.96-1.09,1.92-1.09,.8,0,2.05,.48,2.05,2.47v3.47h-1.06v-3.35c0-.94-.35-1.72-1.34-1.72-.7,0-1.24,.49-1.42,1.08-.05,.13-.07,.31-.07,.49v3.49h-1.06v-4.23Z"/><path d="M3856.42,2660.32c0,2.15-1.49,3.08-2.89,3.08-1.57,0-2.78-1.15-2.78-2.99,0-1.94,1.27-3.08,2.88-3.08s2.79,1.21,2.79,2.99Zm-4.61,.06c0,1.27,.73,2.23,1.76,2.23s1.76-.95,1.76-2.25c0-.98-.49-2.23-1.74-2.23s-1.79,1.15-1.79,2.25Z"/><path d="M3860.2,2659.63v.78h-2.96v-.78h2.96Z"/><path d="M3962.41,2659.03c0-.6-.01-1.09-.05-1.57h.94l.06,.96h.02c.29-.55,.96-1.09,1.92-1.09,.8,0,2.05,.48,2.05,2.47v3.47h-1.06v-3.35c0-.94-.35-1.72-1.34-1.72-.7,0-1.24,.49-1.42,1.08-.05,.13-.07,.31-.07,.49v3.49h-1.06v-4.23Z"/><path d="M3973.93,2661.68c0,.6,.01,1.13,.05,1.58h-.94l-.06-.95h-.02c-.28,.47-.89,1.08-1.92,1.08-.91,0-2-.5-2-2.54v-3.39h1.06v3.21c0,1.1,.34,1.85,1.3,1.85,.71,0,1.2-.49,1.39-.96,.06-.16,.1-.35,.1-.54v-3.56h1.06v4.22Z"/><path d="M3975.69,2659.03c0-.6-.01-1.09-.05-1.57h.92l.05,.94h.04c.32-.55,.86-1.07,1.82-1.07,.79,0,1.39,.48,1.64,1.16h.02c.18-.32,.41-.58,.65-.76,.35-.26,.73-.41,1.28-.41,.77,0,1.91,.5,1.91,2.52v3.42h-1.03v-3.29c0-1.12-.41-1.79-1.26-1.79-.6,0-1.07,.44-1.25,.96-.05,.14-.08,.33-.08,.53v3.59h-1.03v-3.48c0-.92-.41-1.59-1.21-1.59-.66,0-1.14,.53-1.31,1.06-.06,.16-.08,.34-.08,.52v3.5h-1.03v-4.23Z"/><path d="M3988.14,2659.63v.78h-2.96v-.78h2.96Z"/><path d="M4080.38,2659.03c0-.6-.01-1.09-.05-1.57h.92l.05,.94h.04c.32-.55,.86-1.07,1.82-1.07,.79,0,1.39,.48,1.64,1.16h.02c.18-.32,.41-.58,.65-.76,.35-.26,.73-.41,1.28-.41,.77,0,1.91,.5,1.91,2.52v3.42h-1.03v-3.29c0-1.12-.41-1.79-1.26-1.79-.6,0-1.07,.44-1.25,.96-.05,.14-.08,.33-.08,.53v3.59h-1.03v-3.48c0-.92-.41-1.59-1.21-1.59-.66,0-1.14,.53-1.31,1.06-.06,.16-.08,.34-.08,.52v3.5h-1.03v-4.23Z"/><path d="M4090.62,2657.46l1.27,3.43c.13,.38,.28,.84,.37,1.19h.02c.11-.35,.23-.79,.37-1.21l1.15-3.41h1.12l-1.58,4.14c-.76,1.99-1.27,3.01-1.99,3.63-.52,.46-1.03,.64-1.29,.68l-.26-.89c.26-.08,.61-.25,.92-.52,.29-.23,.65-.64,.89-1.17,.05-.11,.08-.19,.08-.25s-.02-.14-.07-.28l-2.15-5.35h1.15Z"/><path d="M4198.3,2659.03c0-.6-.01-1.09-.05-1.57h.94l.06,.96h.02c.29-.55,.96-1.09,1.92-1.09,.8,0,2.05,.48,2.05,2.47v3.47h-1.06v-3.35c0-.94-.35-1.72-1.34-1.72-.7,0-1.24,.49-1.42,1.08-.05,.13-.07,.31-.07,.49v3.49h-1.06v-4.23Z"/><path d="M4206.14,2655.83c.01,.36-.25,.65-.67,.65-.37,0-.64-.29-.64-.65s.28-.66,.66-.66,.65,.29,.65,.66Zm-1.18,7.44v-5.8h1.06v5.8h-1.06Z"/><path d="M4207.72,2663.27c.02-.4,.05-.98,.05-1.5v-7.02h1.04v3.65h.02c.37-.65,1.04-1.07,1.98-1.07,1.44,0,2.46,1.2,2.45,2.96,0,2.08-1.31,3.11-2.6,3.11-.84,0-1.51-.32-1.94-1.09h-.04l-.05,.96h-.91Zm1.09-2.33c0,.13,.02,.26,.05,.38,.2,.73,.82,1.24,1.58,1.24,1.1,0,1.76-.9,1.76-2.23,0-1.16-.6-2.16-1.73-2.16-.72,0-1.39,.49-1.61,1.3-.02,.12-.06,.26-.06,.43v1.04Z"/><path d="M4214.6,2654.75h1.06v3.62h.02c.17-.3,.43-.56,.76-.74,.31-.18,.68-.3,1.08-.3,.78,0,2.03,.48,2.03,2.48v3.45h-1.06v-3.33c0-.94-.35-1.73-1.34-1.73-.68,0-1.22,.48-1.42,1.06-.06,.14-.07,.3-.07,.5v3.5h-1.06v-8.52Z"/><path d="M4316.79,2660.55c.02,1.43,.94,2.02,1.99,2.02,.76,0,1.21-.13,1.61-.3l.18,.75c-.37,.17-1.01,.36-1.93,.36-1.79,0-2.85-1.18-2.85-2.93s1.03-3.13,2.72-3.13c1.9,0,2.4,1.67,2.4,2.73,0,.22-.02,.38-.04,.49h-4.08Zm3.09-.75c.01-.67-.28-1.72-1.46-1.72-1.07,0-1.54,.98-1.62,1.72h3.08Z"/><path d="M4327.08,2661.68c0,.6,.01,1.13,.05,1.58h-.94l-.06-.95h-.02c-.28,.47-.89,1.08-1.92,1.08-.91,0-2-.5-2-2.54v-3.39h1.06v3.21c0,1.1,.34,1.85,1.3,1.85,.71,0,1.2-.49,1.39-.96,.06-.16,.1-.35,.1-.54v-3.56h1.06v4.22Z"/><path d="M4330.01,2655.83c.01,.36-.25,.65-.67,.65-.37,0-.64-.29-.64-.65s.28-.66,.66-.66,.65,.29,.65,.66Zm-1.18,7.44v-5.8h1.06v5.8h-1.06Z"/><path d="M4331.49,2662.19c.31,.2,.86,.42,1.39,.42,.77,0,1.13-.38,1.13-.86s-.3-.78-1.08-1.07c-1.04-.37-1.54-.95-1.54-1.64,0-.94,.76-1.7,2-1.7,.59,0,1.1,.17,1.43,.36l-.26,.77c-.23-.14-.65-.34-1.19-.34-.62,0-.97,.36-.97,.79,0,.48,.35,.7,1.1,.98,1.01,.38,1.52,.89,1.52,1.75,0,1.02-.79,1.74-2.17,1.74-.64,0-1.22-.16-1.63-.4l.26-.8Z"/><path d="M4338.84,2659.63v.78h-2.96v-.78h2.96Z"/><path d="M4434.17,2659.03c0-.6-.01-1.09-.05-1.57h.92l.05,.94h.04c.32-.55,.86-1.07,1.82-1.07,.79,0,1.39,.48,1.64,1.16h.02c.18-.32,.41-.58,.65-.76,.35-.26,.73-.41,1.28-.41,.77,0,1.91,.5,1.91,2.52v3.42h-1.03v-3.29c0-1.12-.41-1.79-1.26-1.79-.6,0-1.07,.44-1.25,.96-.05,.14-.08,.33-.08,.53v3.59h-1.03v-3.48c0-.92-.41-1.59-1.21-1.59-.66,0-1.14,.53-1.31,1.06-.06,.16-.08,.34-.08,.52v3.5h-1.03v-4.23Z"/><path d="M4449.43,2660.32c0,2.15-1.49,3.08-2.89,3.08-1.57,0-2.78-1.15-2.78-2.99,0-1.94,1.27-3.08,2.88-3.08s2.79,1.21,2.79,2.99Zm-4.61,.06c0,1.27,.73,2.23,1.76,2.23s1.76-.95,1.76-2.25c0-.98-.49-2.23-1.74-2.23s-1.79,1.15-1.79,2.25Z"/><path d="M4455.78,2654.75v7.02c0,.52,.01,1.1,.05,1.5h-.95l-.05-1.01h-.02c-.32,.65-1.03,1.14-1.98,1.14-1.4,0-2.48-1.19-2.48-2.95-.01-1.93,1.19-3.12,2.6-3.12,.89,0,1.49,.42,1.75,.89h.02v-3.47h1.06Zm-1.06,5.07c0-.13-.01-.31-.05-.44-.16-.67-.73-1.22-1.52-1.22-1.09,0-1.74,.96-1.74,2.24,0,1.17,.58,2.15,1.72,2.15,.71,0,1.35-.47,1.55-1.26,.04-.14,.05-.29,.05-.46v-1.01Z"/></g><path class="cls-4" d="M6768.25,2600.4c5.47-5.55,15.11-3.94,22.67,4.34l43.64,47.82c22.59-22.9,35.61-38.5,45.01-46.86,11.09-9.89,17.36-9.64,28.69,.72,9.4,8.52,22.26,23.87,44.2,46.13,20.01-20.17,32.47-34.72,41.55-43.64,13.5-13.11,19.77-13.91,32.31-2.41,9.32,8.52,22.18,23.87,44.12,46.05,22.11-22.34,34.96-37.77,44.37-46.3,13.98-12.62,20.17-9.88,37.53,8.28,8.6,9,19.77,21.62,36.01,38.02l51.52-52.16c4.1-4.1,10.69-4.1,14.79-.08,4.1,4.1,4.1,10.69,.08,14.79l-59.07,59.71c-4.1,4.02-10.69,4.02-14.71-.08l-51.6-52.16-51.6,52.24c-4.1,4.02-10.69,4.02-14.78-.08l-51.52-52.16-51.6,52.24c-4.1,4.02-10.77,4.02-14.79-.08l-51.52-52.16-51.68,52.24c-4.1,4.02-10.69,4.02-14.71-.08l-51.6-52.16-51.6,52.24c-4.1,4.02-10.69,4.02-14.79-.08l-51.51-52.16-51.6,52.24c-4.1,4.02-10.77,4.02-14.79-.08l-51.52-52.16-51.68,52.24c-4.09,4.02-10.69,4.02-14.7-.08l-58.99-59.63c-4.02-4.1-4.02-10.69,.08-14.79,4.1-4.02,10.69-4.02,14.79,.08l51.52,52.16c71.29-72.09,46.61-72.09,117.9,0,21.14-21.38,33.84-36.33,43.08-45.09,12.78-11.98,19.69-12.7,31.75-.08l43.16,45.17,51.6-52.16Z"/><circle class="cls-3" cx="7294.41" cy="633.75" r="172.48"/><text class="cls-6" transform="translate(0 579.45)"><tspan class="cls-8" x="0" y="0">L</tspan><tspan x="5.5" y="0">o</tspan><tspan class="cls-9" x="12.08" y="0">r</tspan><tspan class="cls-1" x="15.89" y="0">em ipsum</tspan></text><text class="cls-6" transform="translate(4875.12 2786.54)"><tspan class="cls-7" x="0" y="0">L</tspan><tspan x="5.5" y="0">o</tspan><tspan class="cls-2" x="12.08" y="0">r</tspan><tspan class="cls-5" x="15.89" y="0">em ipsum</tspan></text></svg>
