<?xml version="1.0" encoding="UTF-8"?><svg id="Layer_1" xmlns="http://www.w3.org/2000/svg" viewBox="0 0 498.06 284.68"><defs><style>.cls-1{stroke:#000;stroke-miterlimit:10;stroke-width:1.85px;}.cls-1,.cls-2{fill:#fff;}.cls-3{letter-spacing:0em;}.cls-3,.cls-4,.cls-5,.cls-6{isolation:isolate;}.cls-3,.cls-4,.cls-6{font-family:ArialMT, Arial;font-size:1.01px;}.cls-6{letter-spacing:-.05em;}</style></defs><rect width="498.06" height="284.68"/><path class="cls-2" d="M190.85,236.63l5.26-12.42h1.99l5.58,12.42h-2.06l-1.58-3.76h-5.77l-1.49,3.76h-1.92Zm3.94-5.1h4.67l-1.42-3.45c-.43-1.05-.76-1.91-.98-2.59-.19,.81-.44,1.6-.76,2.39l-1.5,3.65h0Zm12.09,5.1v-12.42h2.72l3.24,8.8c.3,.82,.51,1.43,.65,1.84,.16-.45,.4-1.11,.73-1.99l3.3-8.64h2.43v12.42h-1.74v-10.4l-4,10.4h-1.63l-3.95-10.59v10.59h-1.74Zm17.18-3.99l1.71-.13c.08,.62,.27,1.13,.57,1.53,.3,.41,.75,.73,1.38,.97,.62,.25,1.33,.37,2.1,.37,.69,0,1.3-.09,1.83-.28,.53-.19,.92-.45,1.18-.78,.26-.32,.39-.68,.39-1.06s-.13-.73-.38-1.02c-.25-.29-.66-.53-1.23-.73-.36-.13-1.18-.33-2.44-.61s-2.14-.53-2.64-.78c-.66-.31-1.14-.7-1.46-1.16-.32-.46-.48-.98-.48-1.55,0-.64,.19-1.22,.59-1.76,.39-.55,.96-.96,1.72-1.24,.75-.28,1.59-.43,2.51-.43,1.01,0,1.91,.15,2.69,.45,.77,.29,1.37,.73,1.79,1.31,.42,.57,.64,1.23,.67,1.96l-1.74,.12c-.1-.79-.41-1.38-.95-1.78-.54-.41-1.33-.6-2.38-.6-1.1,0-1.9,.18-2.4,.54-.51,.36-.75,.81-.75,1.32,0,.45,.18,.81,.53,1.1,.35,.28,1.26,.58,2.73,.88,1.47,.3,2.49,.57,3.03,.79,.8,.33,1.39,.76,1.77,1.26,.38,.51,.57,1.1,.57,1.76s-.2,1.28-.63,1.86c-.42,.59-1.01,1.04-1.79,1.36-.78,.32-1.65,.49-2.64,.49-1.24,0-2.27-.16-3.11-.49-.84-.32-1.5-.82-1.97-1.48-.48-.66-.73-1.4-.76-2.23h0Zm18.64,3.99v-10.97h-4.51v-1.45h10.85v1.45h-4.52v10.97h-1.82Zm10.05,0v-12.42h9.89v1.45h-8.07v3.82h7.56v1.45h-7.56v4.24h8.4v1.46h-10.22Zm14.56,0v-12.42h6.07c1.22,0,2.15,.11,2.78,.33,.63,.22,1.14,.62,1.52,1.18,.38,.56,.57,1.19,.57,1.87,0,.89-.32,1.63-.95,2.23-.63,.61-1.6,.99-2.91,1.16,.48,.2,.84,.41,1.09,.61,.53,.44,1.03,.99,1.5,1.66l2.37,3.38h-2.26l-1.81-2.59c-.53-.75-.96-1.32-1.3-1.72-.34-.39-.65-.67-.92-.82-.27-.16-.54-.27-.83-.33-.2-.04-.54-.06-1.01-.06h-2.1v5.52h-1.82Zm1.82-6.94h3.89c.83,0,1.47-.07,1.94-.23,.46-.16,.82-.41,1.06-.75,.25-.34,.36-.71,.36-1.11,0-.59-.23-1.07-.7-1.45-.47-.38-1.21-.56-2.22-.56h-4.33v4.11h0Zm13.76,6.95v-12.42h4.72c1.07,0,1.88,.05,2.44,.18,.79,.16,1.46,.46,2.01,.89,.72,.55,1.27,1.26,1.62,2.12,.36,.86,.54,1.85,.54,2.96,0,.94-.12,1.78-.36,2.51-.24,.73-.55,1.33-.93,1.81-.39,.47-.8,.85-1.25,1.12-.45,.28-1,.49-1.63,.63-.64,.14-1.38,.21-2.2,.21h-4.95Zm1.82-1.46h2.92c.91,0,1.62-.07,2.13-.23,.51-.15,.92-.36,1.22-.64,.43-.39,.77-.92,1.01-1.57,.24-.66,.36-1.46,.36-2.4,0-1.3-.23-2.3-.7-3.01-.47-.7-1.04-1.17-1.71-1.41-.48-.17-1.27-.26-2.35-.26h-2.87v9.51h0Zm12.29,1.46l5.26-12.42h2l5.58,12.42h-2.06l-1.59-3.76h-5.77l-1.48,3.76h-1.93Zm3.95-5.1h4.67l-1.43-3.45c-.43-1.05-.76-1.91-.98-2.59-.19,.81-.44,1.6-.76,2.39l-1.5,3.65h0Zm12.08,5.1v-12.42h2.72l3.24,8.8c.31,.82,.52,1.43,.66,1.84,.16-.45,.4-1.11,.74-1.99l3.29-8.64h2.43v12.42h-1.74v-10.4l-4,10.4h-1.63l-3.95-10.59v10.59h-1.74Z"/><path class="cls-2" d="M259.98,204.02c-.47,0-.84-.38-.84-.84s.38-.84,.84-.84h197.87c.47,0,.84,.38,.84,.84s-.38,.84-.84,.84h-197.87Z"/><path class="cls-2" d="M202.03,204.06c-.47,0-.84-.38-.84-.84s.37-.84,.84-.84h11.17c.47,0,.84,.38,.84,.84s-.38,.84-.84,.84h-11.17Zm24.36,0c-.14,0-.26-.03-.37-.09-.08,.03-.16,.04-.25,.04-.47,0-.84-.38-.84-.84v-10.9c-6.64-3-13.27-4.55-19.9-4.59-6.62-.03-13.25,1.46-19.88,4.57v10.42c0,.47-.38,.84-.84,.84s-.84-.38-.84-.84v-10.94c0-.36,.23-.68,.55-.8,7-3.36,14.01-4.97,21.02-4.93,7.04,.03,14.07,1.72,21.09,4.96,.31,.14,.49,.45,.49,.77h0v10.64h1.63l2.96-19.98c-1.3-.22-2.61-.43-3.9-.62-.09,.04-.2,.06-.32,.06-.2,0-.38-.07-.52-.18-7.61-1.07-15.17-1.6-22.71-1.59-8.28,0-16.53,.66-24.77,1.94-.02,0-.04,0-.06,.01-.86,.13-1.72,.27-2.57,.42v20.25c0,.47-.38,.84-.84,.84s-.84-.38-.84-.84v-20.96c0-.43,.32-.78,.74-.84,.86-.15,1.72-.3,2.58-.43v-4.98c-.78,.13-1.55,.26-2.33,.39-.46,.07-.89-.24-.97-.7-.07-.45,.23-.89,.69-.97,.87-.15,1.74-.29,2.61-.43v-2.79c-.78,.13-1.55,.26-2.33,.39-.46,.07-.89-.24-.97-.7-.07-.45,.23-.89,.69-.97,9.07-1.57,18.34-2.37,27.86-2.38,9.5-.01,19.21,.77,29.15,2.38,.3,.05,.53,.25,.63,.51l4.2-28.39-14.68,8.48h0l-1.85,1.07c-.4,.24-.92,.1-1.15-.3-.24-.41-.09-.92,.3-1.15l1.13-.66-6.37-11.03c-.23-.41-.09-.92,.31-1.16,.02,0,.04-.02,.06-.03l17.1-8.12h-.22c-.47,0-.84-.38-.84-.84,0-.28,.14-.53,.34-.68l22.79-19.11-8.74-15.15-7.07-12.24c-.23-.41-.09-.92,.31-1.15l.05-.03,11.72-6.77c.4-.23,.91-.09,1.15,.31,0,.02,.02,.04,.03,.06h0l15.28,32.19c.2,.41,.02,.91-.39,1.11l-6.51,3.76,11.55,9.69,25.04-14.45h0l12.24-7.07c.4-.23,.92-.09,1.15,.31,.01,.01,.02,.03,.03,.05l6.77,11.72c.23,.4,.09,.91-.31,1.14-.02,.01-.04,.03-.06,.03h0l-32.19,15.28c-.41,.2-.91,.02-1.11-.38l-4.91-8.51-5.27,3.04,7.4,6.2c.36,.3,.41,.83,.11,1.19-.17,.2-.41,.3-.65,.3h-11.76l3.47,6.01c.12-.11,.27-.18,.44-.2,.46-.07,.89,.25,.96,.71l.38,2.57,6.03,10.44s.01,.03,.03,.04c0,.02,.01,.03,.02,.05l3.65,6.32s.01,.03,.03,.05c0,.01,.01,.03,.02,.05l3.51,6.06,.02,.04s.02,.03,.03,.05l4.57,7.9c.23,.41,.09,.92-.31,1.15-.41,.23-.92,.09-1.15-.31l-.66-1.13-10.36,5.99,4.2,28.38c.07,.46-.25,.89-.71,.95-.46,.07-.89-.25-.96-.71l-4.19-28.34c-.07-.05-.12-.12-.16-.2-.01-.02-.03-.04-.03-.06l-15.28-32.19c-.2-.41-.02-.91,.39-1.11l8.51-4.91-4.39-7.6h-.17c-.81,.28-1.68,.3-2.47,.09-.09-.03-.19-.05-.28-.09h-3.57l-6.27,3.62-14.21,8.2-6.03,40.75c.03,.12,.04,.24,.02,.37-.02,.12-.06,.22-.12,.31l-2.99,20.2h34.86c.47,0,.84,.38,.84,.84s-.38,.84-.84,.84h-38.42Zm39.89-6.22c-.47,0-.84-.38-.84-.84s.38-.84,.84-.84h4.65c.47,0,.84,.38,.84,.84s-.38,.84-.84,.84h-4.65Zm3.1-12.28c-.47,0-.84-.38-.84-.84s.38-.84,.84-.84h4.65c.47,0,.84,.38,.84,.84s-.38,.84-.84,.84h-4.65Zm-7.39-9.78c-.47,0-.84-.38-.84-.84s.38-.84,.84-.84h4.65c.47,0,.84,.38,.84,.84s-.38,.84-.84,.84h-4.65Zm-14.78,12.87c-.47,0-.84-.38-.84-.84s.38-.84,.84-.84h4.65c.47,0,.84,.38,.84,.84s-.38,.84-.84,.84h-4.65Zm-5.06-7.98c-.47,0-.84-.38-.84-.84s.38-.84,.84-.84h4.64c.47,0,.84,.38,.84,.84s-.37,.84-.84,.84h-4.64Zm57.5-17.55c-.47,0-.84-.38-.84-.84s.38-.84,.84-.84h1.87v-2.16h-2.07c-.38,0-.72-.26-.82-.64l-2.76-11h-1.42c-.47,0-.84-.38-.84-.84,0-.24,.09-.45,.25-.61l7.59-8.69c.3-.35,.84-.38,1.19-.08,.03,.03,.05,.05,.08,.09l7.54,8.74c.3,.35,.26,.89-.09,1.19-.16,.14-.35,.21-.55,.21h-1.66l-1.87,10.89c-.05,.42-.41,.74-.84,.74h-2.06v2.16h1.7c.47,0,.84,.38,.84,.84s-.38,.84-.84,.84h-1.7v20.88h1.7c.47,0,.84,.38,.84,.84s-.38,.84-.84,.84h-1.7v1.66h2.06c.47,0,.84,.38,.84,.84v.07l.11,14.05h8.19c.47,0,.84,.38,.84,.84s-.38,.84-.84,.84h-8.62c-.12,.07-.26,.1-.4,.1s-.28-.03-.41-.1h-12.13c-.47,0-.84-.38-.84-.84s.38-.84,.84-.84h5.83l-.08-14.12c0-.46,.38-.84,.84-.84h2.07v-1.66h-1.87c-.47,0-.84-.38-.84-.84s.38-.84,.84-.84h1.87v-20.88h-1.86Zm6.61-15.48h-8.65l2.49,9.94h4.45l1.71-9.94h0Zm-9.45-1.69h10.96l-5.7-6.61-5.74,6.57c.17-.03,.33-.02,.48,.04h0Zm7.72,56.36l-.11-13.27h-4.14l.07,13.27h4.18Zm-8.25-136.4c-.45,.1-.91-.19-1-.64-.1-.46,.19-.91,.65-1.01,3.66-.8,5.51,.53,6.43,1.92,.04-.06,.08-.12,.13-.18,.39-.54,.88-1.04,1.47-1.41,.61-.39,1.31-.65,2.08-.69,.93-.05,1.94,.22,2.97,.95,.38,.27,.47,.8,.2,1.18-.26,.38-.79,.47-1.17,.2-.7-.49-1.34-.68-1.91-.64-.46,.02-.88,.18-1.26,.43-.4,.25-.74,.6-1.01,.97-.4,.55-.62,1.15-.6,1.59,.02,.25-.07,.49-.24,.66l-.05,.03c-.12,.11-.28,.19-.45,.21-.18,.02-.34,0-.49-.08l-.04-.02c-.23-.13-.39-.36-.43-.64,0,0,0-.07-.04-.22-.18-.85-1.1-3.49-5.25-2.59h0Zm6.71,3.33h0Zm-10.44,17.46c-.46,.1-.91-.19-1.01-.64-.09-.46,.19-.91,.65-1.01,3.67-.8,5.51,.53,6.43,1.92,.04-.06,.08-.12,.12-.18,.39-.54,.88-1.04,1.47-1.41,.61-.39,1.31-.65,2.08-.69,.93-.05,1.94,.22,2.97,.95,.39,.27,.47,.8,.2,1.18-.27,.38-.8,.47-1.18,.2-.7-.49-1.34-.68-1.91-.64-.46,.02-.88,.18-1.26,.43-.4,.25-.74,.59-1.01,.97-.39,.55-.61,1.15-.6,1.59,.02,.26-.07,.49-.24,.65l-.04,.04c-.12,.11-.28,.19-.45,.21-.17,.02-.34,0-.48-.08l-.04-.02c-.23-.13-.4-.36-.43-.64,0,0-.01-.07-.04-.22-.19-.85-1.11-3.49-5.25-2.59h0Zm6.7,3.33h0Zm-19.88-12.59c-.46,.09-.91-.2-1.01-.65-.09-.45,.2-.91,.65-1,3.67-.8,5.51,.53,6.43,1.91,.04-.06,.08-.12,.12-.18,.39-.54,.89-1.04,1.47-1.41,.61-.39,1.31-.65,2.08-.69,.93-.05,1.94,.22,2.98,.95,.38,.27,.47,.8,.2,1.18-.27,.38-.8,.47-1.18,.2-.7-.49-1.34-.67-1.91-.64-.46,.03-.89,.18-1.26,.43-.4,.25-.74,.6-1.01,.97-.39,.56-.61,1.15-.6,1.59,.02,.25-.07,.49-.24,.66l-.04,.04c-.12,.11-.28,.18-.45,.2-.17,.02-.34,0-.48-.08l-.04-.02c-.23-.13-.4-.36-.43-.64,0,0-.01-.07-.04-.22-.19-.84-1.11-3.49-5.25-2.58h0Zm6.71,3.32h0Zm-39.6,91.58h5.94v-13.22c0-.82-.34-1.56-.87-2.09-.54-.54-1.28-.88-2.1-.88s-1.55,.34-2.09,.88c-.54,.53-.87,1.28-.87,2.09v13.22h0Zm6.78,1.69h-7.63c-.47,0-.84-.38-.84-.84v-14.06c0-1.28,.53-2.45,1.37-3.29,.84-.84,2.01-1.37,3.29-1.37s2.45,.53,3.29,1.37c.84,.84,1.37,2.01,1.37,3.29v14.06c0,.47-.38,.84-.84,.84h0Zm21.17-30.58l-8.33,4.81,2.55,5.36,8.75-5.05-2.97-5.13Zm-9.05,3.28l8.22-4.74-2.34-4.05-7.88,4.55,2.01,4.24h0Zm12.86,3.3l-8.86,5.11,2.46,5.19,9.26-5.35-2.86-4.95h0Zm3.7,6.41l-9.38,5.42,2.33,4.91,9.76-5.63-2.71-4.7Zm3.55,6.15l-9.87,5.7,2.3,4.84,10.25-5.92-2.68-4.63h0Zm-49.9-35.41l11.53-5.47c.41-.2,.91-.02,1.11,.38l2.93,5.09h7.92l1.43-.82c-.32-.85-.35-1.76-.13-2.59,.23-.84,.72-1.62,1.43-2.2l-5.75-9.96h0l-1.09-1.89-20.84,17.46h1.46Zm16.55,1.69l1.01,1.74,3.01-1.74h-4.02Zm15.62-6.7l2.18-1.26-2.73-2.29-8.82-7.4-.45,.26,5.37,9.3c.76-.22,1.54-.22,2.28-.03,.84,.22,1.61,.71,2.18,1.41h0Zm3.55-.11l-2.76,1.59c.23,.76,.23,1.55,.03,2.3-.12,.43-.3,.84-.55,1.22h9.38l-6.1-5.11h0Zm-44.28,23.63l-5.7-9.88-4.84,2.3,5.91,10.24,3.89-2.24,.74-.43h0Zm-4.18-10.6l5.63,9.76,4.7-2.71-5.41-9.38-4.91,2.33Zm23.33-.46l-4.81-8.33-5.37,2.55,5.05,8.74,2.21-1.28,2.92-1.68h0Zm-3.28-9.05l4.74,8.21,4.06-2.34-4.55-7.88-4.24,2.01h0Zm-3.3,12.86l-5.12-8.86-5.18,2.46,5.34,9.26,4.96-2.86h0Zm45.5-24.33l4.81,8.33,5.37-2.55-5.05-8.74-5.13,2.96h0Zm3.28,9.05l-4.74-8.21-4.05,2.34,4.55,7.88,4.24-2.01h0Zm-34.47-18.64l8.33-4.81-2.55-5.37-8.74,5.05,2.96,5.13h0Zm9.05-3.28l-8.21,4.74,2.34,4.06,7.88-4.55-2.01-4.24h0Zm28.72,9.07l5.11,8.86,5.19-2.47-5.35-9.26-4.95,2.86h0Zm-41.58-12.37l8.86-5.11-2.47-5.19-9.26,5.34,2.86,4.96h0Zm47.99,8.67l5.42,9.38,4.91-2.33-5.63-9.76-4.7,2.71h0Zm-51.69-15.09l9.38-5.41-2.33-4.91-9.76,5.63,2.71,4.7h0Zm57.85,11.53l5.7,9.87,4.84-2.3-5.91-10.25-4.64,2.67Zm-61.4-17.68l9.88-5.7-2.3-4.85-10.25,5.92,2.68,4.63h0Zm-11.42,95.31l.72-4.86s-.05,0-.07,0c-1.43-.24-2.85-.45-4.27-.65v4.93c1.21,.18,2.41,.37,3.62,.58h0Zm.97-6.52l.47-3.13c-.19,.22-.48,.34-.78,.3-1.43-.24-2.85-.45-4.27-.65v2.79c1.51,.21,3.02,.44,4.54,.68,.01,0,.03,0,.05,.01h0Zm-52.75-.7c4.32-.63,8.68-1.08,13.09-1.36v-2.8c-4.4,.28-8.77,.74-13.09,1.38v2.79Zm14.78-1.47c2.91-.16,5.83-.24,8.78-.24,2.14,0,4.3,.03,6.46,.12v-2.81c-2.16-.08-4.32-.12-6.46-.12-2.95,0-5.87,.08-8.78,.24v2.8h0Zm16.92-.05c4.87,.22,9.8,.66,14.78,1.3v-2.8c-4.99-.65-9.91-1.08-14.78-1.31v2.81Zm14.78,2.99c-4.99-.65-9.91-1.08-14.78-1.31v4.87c4.92,.23,9.84,.68,14.78,1.36v-4.92h0Zm-16.46-1.38c-2.16-.08-4.32-.12-6.46-.12-2.95,0-5.87,.08-8.78,.24v4.92c3.1-.18,6.2-.28,9.31-.28,1.97,0,3.95,.03,5.93,.1v-4.87h0Zm-16.92,.23c-4.4,.28-8.77,.74-13.09,1.38v4.97c4.35-.65,8.71-1.12,13.09-1.43v-4.93h0Z"/><path class="cls-2" d="M97.91,65.21c-.45,.09-.9-.2-1-.65-.1-.45,.19-.91,.65-1,3.36-.74,5.09,.45,5.97,1.72l.06-.09c.36-.51,.83-.97,1.38-1.32,.57-.36,1.23-.61,1.96-.65,.87-.05,1.82,.2,2.79,.89,.38,.27,.47,.8,.2,1.18s-.79,.47-1.17,.2c-.64-.45-1.22-.61-1.74-.59-.41,.02-.79,.17-1.13,.39-.36,.23-.68,.54-.91,.88-.36,.5-.56,1.03-.55,1.43,.03,.44-.28,.84-.72,.9-.46,.07-.89-.25-.95-.72v-.03s-.01-.06-.04-.2c-.17-.77-1.01-3.18-4.79-2.34h0Z"/><g><path d="M115.2,216.86h.09v.61h.29v.07h-.38v-.68h0Z"/><path d="M116.1,217.29c0,.18-.13,.26-.24,.26-.13,0-.23-.1-.23-.25,0-.16,.11-.26,.24-.26s.23,.1,.23,.25Zm-.39,0c0,.11,.06,.19,.15,.19s.15-.08,.15-.19c0-.08-.04-.19-.15-.19s-.15,.1-.15,.19h0Z"/><path d="M116.21,217.2c0-.06,0-.11,0-.15h.08v.1h0c.02-.07,.08-.11,.14-.11,.01,0,.02,0,.03,0v.08s-.02,0-.03,0c-.06,0-.11,.05-.12,.11,0,.01,0,.03,0,.04v.26h-.09v-.34h0Z"/><path d="M116.58,217.31c0,.12,.08,.17,.17,.17,.06,0,.1-.01,.14-.03l.02,.06s-.08,.03-.16,.03c-.15,0-.24-.1-.24-.25s.09-.26,.23-.26c.16,0,.2,.14,.2,.23,0,.02,0,.03,0,.04h-.34Zm.26-.06c0-.06-.02-.14-.12-.14-.09,0-.13,.08-.14,.14h.26Z"/><path d="M117.04,217.18c0-.05,0-.09,0-.13h.08v.08h0s.07-.09,.15-.09c.07,0,.12,.04,.14,.1h0s.03-.05,.05-.06c.03-.02,.06-.03,.11-.03,.06,0,.16,.04,.16,.21v.29h-.09v-.28c0-.09-.03-.15-.11-.15-.05,0-.09,.04-.11,.08,0,.01,0,.03,0,.04v.3h-.09v-.29c0-.08-.03-.13-.1-.13-.06,0-.1,.04-.11,.09,0,.01,0,.03,0,.04v.29h-.09v-.36h0Z"/><path d="M125.21,216.91s-.02,.05-.06,.05c-.03,0-.05-.02-.05-.05s.02-.06,.06-.06,.05,.02,.05,.06Zm-.1,.63v-.49h.09v.49h-.09Z"/><path d="M125.35,217.21c0-.06,0-.11,0-.16h.08v.08h0c.04-.06,.09-.09,.17-.09,.12,0,.21,.1,.21,.25,0,.18-.11,.26-.22,.26-.06,0-.12-.03-.15-.08h0v.26h-.09v-.53h0Zm.09,.13s0,.03,0,.04c.02,.06,.07,.1,.13,.1,.09,0,.15-.08,.15-.19,0-.1-.05-.18-.15-.18-.06,0-.12,.04-.13,.11,0,.01,0,.02,0,.04v.08h0Z"/><path d="M125.91,217.45s.07,.04,.12,.04c.06,0,.09-.03,.09-.07s-.03-.07-.09-.09c-.09-.03-.13-.08-.13-.14,0-.08,.06-.14,.17-.14,.05,0,.09,.01,.12,.03l-.02,.06s-.05-.03-.1-.03c-.05,0-.08,.03-.08,.07,0,.04,.03,.06,.09,.08,.08,.03,.13,.07,.13,.15,0,.09-.07,.15-.18,.15-.05,0-.1-.01-.14-.03l.02-.07h0Z"/><path d="M126.73,217.41c0,.05,0,.09,0,.13h-.08v-.08h0s-.07,.09-.16,.09c-.08,0-.17-.04-.17-.21v-.28h.09v.27c0,.09,.03,.16,.11,.16,.06,0,.1-.04,.12-.08,0-.01,0-.03,0-.05v-.3h.09v.35h0Z"/><path d="M126.87,217.18c0-.05,0-.09,0-.13h.08v.08h0s.07-.09,.15-.09c.07,0,.12,.04,.14,.1h0s.03-.05,.05-.06c.03-.02,.06-.03,.11-.03,.06,0,.16,.04,.16,.21v.29h-.09v-.28c0-.09-.03-.15-.11-.15-.05,0-.09,.04-.11,.08,0,.01,0,.03,0,.04v.3h-.09v-.29c0-.08-.03-.13-.1-.13-.06,0-.1,.04-.11,.09,0,.01,0,.03,0,.04v.29h-.09v-.36h0Z"/><path d="M135.58,216.82v.59s0,.09,0,.13h-.08v-.08h0c-.03,.05-.09,.1-.17,.1-.12,0-.21-.1-.21-.25,0-.16,.1-.26,.22-.26,.07,0,.13,.04,.15,.07h0v-.29h.09Zm-.09,.43s0-.03,0-.04c-.01-.06-.06-.1-.13-.1-.09,0-.15,.08-.15,.19,0,.1,.05,.18,.14,.18,.06,0,.11-.04,.13-.11,0-.01,0-.02,0-.04v-.08h0Z"/><path d="M136.17,217.29c0,.18-.13,.26-.24,.26-.13,0-.23-.1-.23-.25,0-.16,.11-.26,.24-.26s.23,.1,.23,.25Zm-.39,0c0,.11,.06,.19,.15,.19s.15-.08,.15-.19c0-.08-.04-.19-.15-.19s-.15,.1-.15,.19h0Z"/><path d="M136.29,216.82h.09v.72h-.09v-.72Z"/><path d="M136.96,217.29c0,.18-.13,.26-.24,.26-.13,0-.23-.1-.23-.25,0-.16,.11-.26,.24-.26s.23,.1,.23,.25Zm-.39,0c0,.11,.06,.19,.15,.19s.15-.08,.15-.19c0-.08-.04-.19-.15-.19s-.15,.1-.15,.19h0Z"/><path d="M137.08,217.2c0-.06,0-.11,0-.15h.08v.1h0c.02-.07,.08-.11,.14-.11,.01,0,.02,0,.03,0v.08s-.02,0-.03,0c-.06,0-.11,.05-.12,.11,0,.01,0,.03,0,.04v.26h-.09v-.34h0Z"/><path d="M137.61,217.45s.07,.04,.12,.04c.06,0,.09-.03,.09-.07s-.03-.07-.09-.09c-.09-.03-.13-.08-.13-.14,0-.08,.06-.14,.17-.14,.05,0,.09,.01,.12,.03l-.02,.06s-.05-.03-.1-.03c-.05,0-.08,.03-.08,.07,0,.04,.03,.06,.09,.08,.08,.03,.13,.07,.13,.15,0,.09-.07,.15-.18,.15-.05,0-.1-.01-.14-.03l.02-.07h0Z"/><path d="M138.12,216.91s-.02,.05-.06,.05c-.03,0-.05-.02-.05-.05s.02-.06,.06-.06,.05,.02,.05,.06Zm-.1,.63v-.49h.09v.49h-.09Z"/><path d="M138.36,216.91v.14h.13v.07h-.13v.26c0,.06,.02,.09,.07,.09,.02,0,.04,0,.05,0v.07s-.04,.01-.07,.01c-.04,0-.07-.01-.1-.04-.03-.03-.03-.07-.03-.13v-.27h-.08v-.07h.08v-.12l.09-.02h0Z"/><path d="M145.21,217.54v-.06h-.01s-.08,.07-.15,.07c-.1,0-.15-.07-.15-.14,0-.12,.11-.18,.29-.18h0c0-.05-.01-.12-.11-.12-.05,0-.09,.01-.13,.04l-.02-.06s.1-.04,.16-.04c.15,0,.19,.1,.19,.2v.18s0,.08,0,.12h-.08Zm-.01-.25c-.1,0-.21,.02-.21,.11,0,.06,.04,.08,.08,.08,.06,0,.1-.04,.12-.08,0,0,0-.02,0-.03v-.08Z"/><path d="M145.42,217.18c0-.05,0-.09,0-.13h.08v.08h0s.07-.09,.15-.09c.07,0,.12,.04,.14,.1h0s.03-.05,.05-.06c.03-.02,.06-.03,.11-.03,.06,0,.16,.04,.16,.21v.29h-.09v-.28c0-.09-.03-.15-.11-.15-.05,0-.09,.04-.11,.08,0,.01,0,.03,0,.04v.3h-.09v-.29c0-.08-.03-.13-.1-.13-.06,0-.1,.04-.11,.09,0,.01,0,.03,0,.04v.29h-.09v-.36h0Z"/><path d="M146.31,217.31c0,.12,.08,.17,.17,.17,.06,0,.1-.01,.14-.03l.02,.06s-.08,.03-.16,.03c-.15,0-.24-.1-.24-.25s.09-.26,.23-.26c.16,0,.2,.14,.2,.23,0,.02,0,.03,0,.04h-.34Zm.26-.06c0-.06-.02-.14-.12-.14-.09,0-.13,.08-.14,.14h.26Z"/><path d="M146.88,216.91v.14h.13v.07h-.13v.26c0,.06,.02,.09,.07,.09,.02,0,.04,0,.05,0v.07s-.04,.01-.07,.01c-.04,0-.07-.01-.1-.04-.03-.03-.03-.07-.03-.13v-.27h-.08v-.07h.08v-.12l.09-.02h0Z"/><path d="M147.04,217.66c.02-.06,.05-.17,.06-.24h.1c-.02,.08-.07,.19-.1,.23h-.06Z"/><path d="M155.2,217.52s-.07,.03-.14,.03c-.15,0-.24-.1-.24-.25s.1-.26,.26-.26c.05,0,.1,.01,.12,.03l-.02,.07s-.05-.02-.1-.02c-.11,0-.17,.08-.17,.18,0,.11,.07,.18,.17,.18,.05,0,.08-.01,.11-.02l.02,.07h0Z"/><path d="M155.74,217.29c0,.18-.13,.26-.24,.26-.13,0-.23-.1-.23-.25,0-.16,.11-.26,.24-.26s.23,.1,.23,.25Zm-.39,0c0,.11,.06,.19,.15,.19s.15-.08,.15-.19c0-.08-.04-.19-.15-.19s-.15,.1-.15,.19h0Z"/><path d="M155.85,217.18c0-.05,0-.09,0-.13h.08v.08h0s.08-.09,.16-.09c.07,0,.17,.04,.17,.21v.29h-.09v-.28c0-.08-.03-.14-.11-.14-.06,0-.1,.04-.12,.09,0,.01,0,.03,0,.04v.29h-.09v-.36h0Z"/><path d="M156.4,217.45s.07,.04,.12,.04c.06,0,.09-.03,.09-.07s-.03-.07-.09-.09c-.09-.03-.13-.08-.13-.14,0-.08,.06-.14,.17-.14,.05,0,.09,.01,.12,.03l-.02,.06s-.05-.03-.1-.03c-.05,0-.08,.03-.08,.07,0,.04,.03,.06,.09,.08,.08,.03,.13,.07,.13,.15,0,.09-.07,.15-.18,.15-.05,0-.1-.01-.14-.03l.02-.07h0Z"/><path d="M156.86,217.31c0,.12,.08,.17,.17,.17,.06,0,.1-.01,.14-.03l.02,.06s-.08,.03-.16,.03c-.15,0-.24-.1-.24-.25s.09-.26,.23-.26c.16,0,.2,.14,.2,.23,0,.02,0,.03,0,.04h-.34Zm.26-.06c0-.06-.02-.14-.12-.14-.09,0-.13,.08-.14,.14h.26Z"/><path d="M157.66,217.52s-.07,.03-.14,.03c-.15,0-.24-.1-.24-.25s.1-.26,.26-.26c.05,0,.1,.01,.12,.03l-.02,.07s-.05-.02-.1-.02c-.11,0-.17,.08-.17,.18,0,.11,.07,.18,.17,.18,.05,0,.08-.01,.11-.02l.02,.07h0Z"/><path d="M157.97,217.23v.07h-.25v-.07h.25Z"/><path d="M164.87,216.91v.14h.13v.07h-.13v.26c0,.06,.02,.09,.07,.09,.02,0,.04,0,.05,0v.07s-.04,.01-.07,.01c-.04,0-.07-.01-.1-.04-.03-.03-.03-.07-.03-.13v-.27h-.08v-.07h.08v-.12l.09-.02h0Z"/><path d="M165.14,217.31c0,.12,.08,.17,.17,.17,.06,0,.1-.01,.14-.03l.02,.06s-.08,.03-.16,.03c-.15,0-.24-.1-.24-.25s.09-.26,.23-.26c.16,0,.2,.14,.2,.23,0,.02,0,.03,0,.04h-.34Zm.26-.06c0-.06-.02-.14-.12-.14-.09,0-.13,.08-.14,.14h.26Z"/><path d="M165.7,216.91v.14h.13v.07h-.13v.26c0,.06,.02,.09,.07,.09,.02,0,.04,0,.05,0v.07s-.04,.01-.07,.01c-.04,0-.07-.01-.1-.04-.03-.03-.03-.07-.03-.13v-.27h-.08v-.07h.08v-.12l.09-.02h0Z"/><path d="M166.34,217.41c0,.05,0,.09,0,.13h-.08v-.08h0s-.07,.09-.16,.09c-.08,0-.17-.04-.17-.21v-.28h.09v.27c0,.09,.03,.16,.11,.16,.06,0,.1-.04,.12-.08,0-.01,0-.03,0-.05v-.3h.09v.35h0Z"/><path d="M166.53,217.31c0,.12,.08,.17,.17,.17,.06,0,.1-.01,.14-.03l.02,.06s-.08,.03-.16,.03c-.15,0-.24-.1-.24-.25s.09-.26,.23-.26c.16,0,.2,.14,.2,.23,0,.02,0,.03,0,.04h-.34Zm.26-.06c0-.06-.02-.14-.12-.14-.09,0-.13,.08-.14,.14h.26Z"/><path d="M166.99,217.2c0-.06,0-.11,0-.15h.08v.1h0c.02-.07,.08-.11,.14-.11,.01,0,.02,0,.03,0v.08s-.02,0-.03,0c-.06,0-.11,.05-.12,.11,0,.01,0,.03,0,.04v.26h-.09v-.34h0Z"/><path d="M175.08,217.54v-.06h-.01s-.08,.07-.15,.07c-.1,0-.15-.07-.15-.14,0-.12,.11-.18,.29-.18h0c0-.05-.01-.12-.11-.12-.05,0-.09,.01-.13,.04l-.02-.06s.1-.04,.16-.04c.15,0,.19,.1,.19,.2v.18s0,.08,0,.12h-.08Zm-.01-.25c-.1,0-.21,.02-.21,.11,0,.06,.04,.08,.08,.08,.06,0,.1-.04,.12-.08,0,0,0-.02,0-.03v-.08Z"/><path d="M175.72,216.82v.59s0,.09,0,.13h-.08v-.08h0c-.03,.05-.09,.1-.17,.1-.12,0-.21-.1-.21-.25,0-.16,.1-.26,.22-.26,.07,0,.13,.04,.15,.07h0v-.29h.09Zm-.09,.43s0-.03,0-.04c-.01-.06-.06-.1-.13-.1-.09,0-.15,.08-.15,.19,0,.1,.05,.18,.14,.18,.06,0,.11-.04,.13-.11,0-.01,0-.02,0-.04v-.08h0Z"/><path d="M175.96,216.91s-.02,.05-.06,.05c-.03,0-.05-.02-.05-.05s.02-.06,.06-.06,.05,.02,.05,.06Zm-.1,.63v-.49h.09v.49h-.09Z"/><path d="M176.31,217.23v.07h-.25v-.07h.25Z"/><path d="M108.02,218.42c0-.06,0-.11,0-.16h.08v.08h0c.04-.06,.09-.09,.17-.09,.12,0,.21,.1,.21,.25,0,.18-.11,.26-.22,.26-.06,0-.12-.03-.15-.08h0v.26h-.09v-.53h0Zm.09,.13s0,.03,0,.04c.02,.06,.07,.1,.13,.1,.09,0,.15-.08,.15-.19,0-.1-.05-.18-.15-.18-.06,0-.12,.04-.13,.11,0,.01,0,.02,0,.04v.08h0Z"/><path d="M108.7,218.12s-.02,.05-.06,.05c-.03,0-.05-.02-.05-.05s.02-.06,.06-.06,.05,.02,.05,.06Zm-.1,.63v-.49h.09v.49h-.09Z"/><path d="M108.82,218.66s.07,.04,.12,.04c.06,0,.09-.03,.09-.07s-.03-.07-.09-.09c-.09-.03-.13-.08-.13-.14,0-.08,.06-.14,.17-.14,.05,0,.09,.01,.12,.03l-.02,.06s-.05-.03-.1-.03c-.05,0-.08,.03-.08,.07,0,.04,.03,.06,.09,.08,.08,.03,.13,.07,.13,.15,0,.09-.07,.15-.18,.15-.05,0-.1-.01-.14-.03l.02-.07h0Z"/><path d="M109.44,218.44v.07h-.25v-.07h.25Z"/><path d="M114.41,218.73s-.07,.03-.14,.03c-.15,0-.24-.1-.24-.25s.1-.26,.26-.26c.05,0,.1,.01,.12,.03l-.02,.07s-.05-.02-.1-.02c-.11,0-.17,.08-.17,.18,0,.11,.07,.18,.17,.18,.05,0,.08-.01,.11-.02l.02,.07h0Z"/><path d="M114.61,218.12s-.02,.05-.06,.05c-.03,0-.05-.02-.05-.05s.02-.06,.06-.06,.05,.02,.05,.06Zm-.1,.63v-.49h.09v.49h-.09Z"/><path d="M114.75,218.39c0-.05,0-.09,0-.13h.08v.08h0s.08-.09,.16-.09c.07,0,.17,.04,.17,.21v.29h-.09v-.28c0-.08-.03-.14-.11-.14-.06,0-.1,.04-.12,.09,0,.01,0,.03,0,.04v.29h-.09v-.36h0Z"/><path d="M115.73,218.26s0,.07,0,.13v.28c0,.11-.02,.18-.07,.22-.05,.04-.12,.06-.18,.06s-.12-.01-.16-.04l.02-.07s.08,.04,.14,.04c.09,0,.16-.05,.16-.17v-.05h0s-.08,.08-.16,.08c-.12,0-.21-.1-.21-.24,0-.17,.11-.26,.22-.26,.08,0,.13,.04,.15,.08h0v-.07h.08Zm-.09,.19s0-.03,0-.04c-.02-.05-.06-.09-.12-.09-.08,0-.15,.07-.15,.18,0,.1,.05,.18,.14,.18,.05,0,.1-.03,.12-.09,0-.02,0-.03,0-.05v-.09h0Z"/><path d="M117.99,218.52c0,.12,.08,.17,.17,.17,.06,0,.1-.01,.14-.03l.02,.06s-.08,.03-.16,.03c-.15,0-.24-.1-.24-.25s.09-.26,.23-.26c.16,0,.2,.14,.2,.23,0,.02,0,.03,0,.04h-.34Zm.26-.06c0-.06-.02-.14-.12-.14-.09,0-.13,.08-.14,.14h.26Z"/><path d="M118.44,218.03h.09v.72h-.09v-.72Z"/><path d="M118.78,218.12s-.02,.05-.06,.05c-.03,0-.05-.02-.05-.05s.02-.06,.06-.06,.05,.02,.05,.06Zm-.1,.63v-.49h.09v.49h-.09Z"/><path d="M119.03,218.12v.14h.13v.07h-.13v.26c0,.06,.02,.09,.07,.09,.02,0,.04,0,.05,0v.07s-.04,.01-.07,.01c-.04,0-.07-.01-.1-.04-.03-.03-.03-.07-.03-.13v-.27h-.08v-.07h.08v-.12l.09-.02h0Z"/><path d="M119.19,218.87c.02-.06,.05-.17,.06-.24h.1c-.02,.08-.07,.19-.1,.23h-.06Z"/><path d="M123.96,218.66s.07,.04,.12,.04c.06,0,.09-.03,.09-.07s-.03-.07-.09-.09c-.09-.03-.13-.08-.13-.14,0-.08,.06-.14,.17-.14,.05,0,.09,.01,.12,.03l-.02,.06s-.05-.03-.1-.03c-.05,0-.08,.03-.08,.07,0,.04,.03,.06,.09,.08,.08,.03,.13,.07,.13,.15,0,.09-.07,.15-.18,.15-.05,0-.1-.01-.14-.03l.02-.07h0Z"/><path d="M124.42,218.52c0,.12,.08,.17,.17,.17,.06,0,.1-.01,.14-.03l.02,.06s-.08,.03-.16,.03c-.15,0-.24-.1-.24-.25s.09-.26,.23-.26c.16,0,.2,.14,.2,.23,0,.02,0,.03,0,.04h-.34Zm.26-.06c0-.06-.02-.14-.12-.14-.09,0-.13,.08-.14,.14h.26Z"/><path d="M125.3,218.03v.59s0,.09,0,.13h-.08v-.08h0c-.03,.05-.09,.1-.17,.1-.12,0-.21-.1-.21-.25,0-.16,.1-.26,.22-.26,.07,0,.13,.04,.15,.07h0v-.29h.09Zm-.09,.43s0-.03,0-.04c-.01-.06-.06-.1-.13-.1-.09,0-.15,.08-.15,.19,0,.1,.05,.18,.14,.18,.06,0,.11-.04,.13-.11,0-.01,0-.02,0-.04v-.08h0Z"/><path d="M110.84,220.45v.59s0,.09,0,.13h-.08v-.08h0c-.03,.05-.09,.1-.17,.1-.12,0-.21-.1-.21-.25,0-.16,.1-.26,.22-.26,.07,0,.13,.04,.15,.07h0v-.29h.09Zm-.09,.43s0-.03,0-.04c-.01-.06-.06-.1-.13-.1-.09,0-.15,.08-.15,.19,0,.1,.05,.18,.14,.18,.06,0,.11-.04,.13-.11,0-.01,0-.02,0-.04v-.08h0Z"/><path d="M111.08,220.55s-.02,.05-.06,.05c-.03,0-.05-.02-.05-.05s.02-.06,.06-.06,.05,.02,.05,.06Zm-.1,.63v-.49h.09v.49h-.09Z"/><path d="M111.49,221.17v-.06h-.01s-.08,.07-.15,.07c-.1,0-.15-.07-.15-.14,0-.12,.11-.18,.29-.18h0c0-.05-.01-.12-.11-.12-.05,0-.09,.01-.13,.04l-.02-.06s.1-.04,.16-.04c.15,0,.19,.1,.19,.2v.18s0,.08,0,.12h-.08Zm-.01-.25c-.1,0-.21,.02-.21,.11,0,.06,.04,.08,.08,.08,.06,0,.1-.04,.12-.08,0,0,0-.02,0-.03v-.08Z"/><path d="M111.71,220.81c0-.05,0-.09,0-.13h.08v.08h0s.07-.09,.15-.09c.07,0,.12,.04,.14,.1h0s.03-.05,.05-.06c.03-.02,.06-.03,.11-.03,.06,0,.16,.04,.16,.21v.29h-.09v-.28c0-.09-.03-.15-.11-.15-.05,0-.09,.04-.11,.08,0,.01,0,.03,0,.04v.3h-.09v-.29c0-.08-.03-.13-.1-.13-.06,0-.1,.04-.11,.09,0,.01,0,.03,0,.04v.29h-.09v-.36h0Z"/><path d="M120.33,220.81c0-.05,0-.09,0-.13h.08v.08h0s.08-.09,.16-.09c.07,0,.17,.04,.17,.21v.29h-.09v-.28c0-.08-.03-.14-.11-.14-.06,0-.1,.04-.12,.09,0,.01,0,.03,0,.04v.29h-.09v-.36h0Z"/><path d="M121.33,220.92c0,.18-.13,.26-.24,.26-.13,0-.23-.1-.23-.25,0-.16,.11-.26,.24-.26s.23,.1,.23,.25Zm-.39,0c0,.11,.06,.19,.15,.19s.15-.08,.15-.19c0-.08-.04-.19-.15-.19s-.15,.1-.15,.19h0Z"/><path d="M121.65,220.86v.07h-.25v-.07h.25Z"/><path d="M130.24,220.81c0-.05,0-.09,0-.13h.08v.08h0s.08-.09,.16-.09c.07,0,.17,.04,.17,.21v.29h-.09v-.28c0-.08-.03-.14-.11-.14-.06,0-.1,.04-.12,.09,0,.01,0,.03,0,.04v.29h-.09v-.36h0Z"/><path d="M131.21,221.04c0,.05,0,.09,0,.13h-.08v-.08h0s-.07,.09-.16,.09c-.08,0-.17-.04-.17-.21v-.28h.09v.27c0,.09,.03,.16,.11,.16,.06,0,.1-.04,.12-.08,0-.01,0-.03,0-.05v-.3h.09v.35h0Z"/><path d="M131.36,220.81c0-.05,0-.09,0-.13h.08v.08h0s.07-.09,.15-.09c.07,0,.12,.04,.14,.1h0s.03-.05,.05-.06c.03-.02,.06-.03,.11-.03,.06,0,.16,.04,.16,.21v.29h-.09v-.28c0-.09-.03-.15-.11-.15-.05,0-.09,.04-.11,.08,0,.01,0,.03,0,.04v.3h-.09v-.29c0-.08-.03-.13-.1-.13-.06,0-.1,.04-.11,.09,0,.01,0,.03,0,.04v.29h-.09v-.36h0Z"/><path d="M132.4,220.86v.07h-.25v-.07h.25Z"/><path d="M140.16,220.81c0-.05,0-.09,0-.13h.08v.08h0s.07-.09,.15-.09c.07,0,.12,.04,.14,.1h0s.03-.05,.05-.06c.03-.02,.06-.03,.11-.03,.06,0,.16,.04,.16,.21v.29h-.09v-.28c0-.09-.03-.15-.11-.15-.05,0-.09,.04-.11,.08,0,.01,0,.03,0,.04v.3h-.09v-.29c0-.08-.03-.13-.1-.13-.06,0-.1,.04-.11,.09,0,.01,0,.03,0,.04v.29h-.09v-.36h0Z"/><path d="M141.02,220.68l.11,.29s.02,.07,.03,.1h0s.02-.07,.03-.1l.1-.29h.09l-.13,.35c-.06,.17-.11,.25-.17,.31-.04,.04-.09,.05-.11,.06l-.02-.07s.05-.02,.08-.04c.02-.02,.05-.05,.07-.1,0,0,0-.02,0-.02s0-.01,0-.02l-.18-.45h.1Z"/><path d="M150.07,220.81c0-.05,0-.09,0-.13h.08v.08h0s.08-.09,.16-.09c.07,0,.17,.04,.17,.21v.29h-.09v-.28c0-.08-.03-.14-.11-.14-.06,0-.1,.04-.12,.09,0,.01,0,.03,0,.04v.29h-.09v-.36h0Z"/><path d="M150.73,220.55s-.02,.05-.06,.05c-.03,0-.05-.02-.05-.05s.02-.06,.06-.06,.05,.02,.05,.06Zm-.1,.63v-.49h.09v.49h-.09Z"/><path d="M150.86,221.17s0-.08,0-.13v-.59h.09v.31h0c.03-.05,.09-.09,.17-.09,.12,0,.21,.1,.21,.25,0,.17-.11,.26-.22,.26-.07,0-.13-.03-.16-.09h0v.08h-.08Zm.09-.2s0,.02,0,.03c.02,.06,.07,.1,.13,.1,.09,0,.15-.08,.15-.19,0-.1-.05-.18-.15-.18-.06,0-.12,.04-.14,.11,0,.01,0,.02,0,.04v.09h0Z"/><path d="M151.44,220.45h.09v.3h0s.04-.05,.06-.06c.03-.02,.06-.03,.09-.03,.07,0,.17,.04,.17,.21v.29h-.09v-.28c0-.08-.03-.15-.11-.15-.06,0-.1,.04-.12,.09,0,.01,0,.03,0,.04v.29h-.09v-.72h0Z"/><path d="M160.03,220.94c0,.12,.08,.17,.17,.17,.06,0,.1-.01,.14-.03l.02,.06s-.08,.03-.16,.03c-.15,0-.24-.1-.24-.25s.09-.26,.23-.26c.16,0,.2,.14,.2,.23,0,.02,0,.03,0,.04h-.34Zm.26-.06c0-.06-.02-.14-.12-.14-.09,0-.13,.08-.14,.14h.26Z"/><path d="M160.9,221.04c0,.05,0,.09,0,.13h-.08v-.08h0s-.07,.09-.16,.09c-.08,0-.17-.04-.17-.21v-.28h.09v.27c0,.09,.03,.16,.11,.16,.06,0,.1-.04,.12-.08,0-.01,0-.03,0-.05v-.3h.09v.35h0Z"/><path d="M161.14,220.55s-.02,.05-.06,.05c-.03,0-.05-.02-.05-.05s.02-.06,.06-.06,.05,.02,.05,.06Zm-.1,.63v-.49h.09v.49h-.09Z"/><path d="M161.27,221.08s.07,.04,.12,.04c.06,0,.09-.03,.09-.07s-.03-.07-.09-.09c-.09-.03-.13-.08-.13-.14,0-.08,.06-.14,.17-.14,.05,0,.09,.01,.12,.03l-.02,.06s-.05-.03-.1-.03c-.05,0-.08,.03-.08,.07,0,.04,.03,.06,.09,.08,.08,.03,.13,.07,.13,.15,0,.09-.07,.15-.18,.15-.05,0-.1-.01-.14-.03l.02-.07h0Z"/><path d="M161.88,220.86v.07h-.25v-.07h.25Z"/><path d="M169.9,220.81c0-.05,0-.09,0-.13h.08v.08h0s.07-.09,.15-.09c.07,0,.12,.04,.14,.1h0s.03-.05,.05-.06c.03-.02,.06-.03,.11-.03,.06,0,.16,.04,.16,.21v.29h-.09v-.28c0-.09-.03-.15-.11-.15-.05,0-.09,.04-.11,.08,0,.01,0,.03,0,.04v.3h-.09v-.29c0-.08-.03-.13-.1-.13-.06,0-.1,.04-.11,.09,0,.01,0,.03,0,.04v.29h-.09v-.36h0Z"/><path d="M171.18,220.92c0,.18-.13,.26-.24,.26-.13,0-.23-.1-.23-.25,0-.16,.11-.26,.24-.26s.23,.1,.23,.25Zm-.39,0c0,.11,.06,.19,.15,.19s.15-.08,.15-.19c0-.08-.04-.19-.15-.19s-.15,.1-.15,.19h0Z"/><path d="M171.71,220.45v.59s0,.09,0,.13h-.08v-.08h0c-.03,.05-.09,.1-.17,.1-.12,0-.21-.1-.21-.25,0-.16,.1-.26,.22-.26,.07,0,.13,.04,.15,.07h0v-.29h.09Zm-.09,.43s0-.03,0-.04c-.01-.06-.06-.1-.13-.1-.09,0-.15,.08-.15,.19,0,.1,.05,.18,.14,.18,.06,0,.11-.04,.13-.11,0-.01,0-.02,0-.04v-.08h0Z"/></g><circle class="cls-1" cx="410.33" cy="50.57" r="14.5"/><g class="cls-5" transform="translate(4875.12 2786.54)"><text class="cls-6" transform="translate(206.97 231.53)"><tspan x="0" y="0">L</tspan></text><text class="cls-4" transform="translate(207.43 231.53)"><tspan x="0" y="0">o</tspan></text><text class="cls-3" transform="translate(207.98 231.53)"><tspan x="0" y="0">r</tspan></text><text class="cls-4" transform="translate(208.3 231.53)"><tspan x="0" y="0">em ipsum</tspan></text></g></svg>